STARTFONT 2.1
FONT -FreeType-FreeUniversal-Bold-R-Normal--34-340-72-72-P-170-ISO10646-1
SIZE 34 72 72
FONTBOUNDINGBOX 50 46 -2 -9
COMMENT "Generated by fontforge, http://fontforge.sourceforge.net"
COMMENT ""
COMMENT "Converted from OpenType font "FreeUniversal-Bold.ttf" by "otf2bdf 3.0"."
COMMENT ""
STARTPROPERTIES 19
FOUNDRY "FreeType"
FAMILY_NAME "FreeUniversal"
WEIGHT_NAME "Bold"
SLANT "R"
SETWIDTH_NAME "Normal"
ADD_STYLE_NAME ""
PIXEL_SIZE 34
POINT_SIZE 340
RESOLUTION_X 72
RESOLUTION_Y 72
SPACING "P"
AVERAGE_WIDTH 170
CHARSET_REGISTRY "ISO10646"
CHARSET_ENCODING "1"
FONT_ASCENT 36
FONT_DESCENT 8
COPYRIGHT "FreeUniveral (c) Stephen Wilson 2009    Original Font Sil-Sophia  Copyright (c) SIL International, 1994-2008."
_OTF_FONTFILE "FreeUniversal-Bold.ttf"
_OTF_PSNAME "FreeUniversal-Bold"
ENDPROPERTIES
CHARS 243
STARTCHAR $0020
ENCODING 32
SWIDTH 294 0
DWIDTH 10 0
BBX 0 0 0 0
BITMAP
ENDCHAR
STARTCHAR $0021
ENCODING 33
SWIDTH 411 0
DWIDTH 14 0
BBX 5 25 5 0
BITMAP
F8
F8
F8
F8
F8
F8
F8
F8
F8
F8
F8
F8
F8
F8
F8
F8
F8
F8
F8
00
00
F8
F8
F8
F8
ENDCHAR
STARTCHAR $0022
ENCODING 34
SWIDTH 529 0
DWIDTH 18 0
BBX 13 10 2 15
BITMAP
F8F8
F8F8
F8F8
78F8
7878
7878
7878
7878
7870
7870
ENDCHAR
STARTCHAR $0023
ENCODING 35
SWIDTH 705 0
DWIDTH 24 0
BBX 21 25 2 0
BITMAP
00E0E0
00E1E0
00E1C0
01E1C0
01C3C0
01C380
1FFFF8
1FFFF0
3FFFF0
078700
078700
070F00
070E00
0F0E00
0E0E00
FFFFC0
FFFFC0
FFFFC0
1C3C00
1C3C00
3C3800
383800
387800
787000
707000
ENDCHAR
STARTCHAR $0024
ENCODING 36
SWIDTH 588 0
DWIDTH 20 0
BBX 18 31 1 -4
BITMAP
00C000
00C000
03F800
0FFC00
1FFE00
3FFF00
7EDF00
78CF80
F8CF80
F8C000
FCC000
7EC000
7FC000
7FF000
1FFC00
07FF00
01FF80
00FF80
00CF80
00C7C0
F8C7C0
F8C7C0
F8CF80
7EDF80
7FFF00
3FFE00
0FFC00
03F000
00C000
00C000
00C000
ENDCHAR
STARTCHAR $0025
ENCODING 37
SWIDTH 1000 0
DWIDTH 34 0
BBX 32 26 1 0
BITMAP
00000380
0FC00700
3FF00700
7CF80E00
78780E00
F03C1C00
F03C1800
F03C3800
F03C7000
F03C7000
7878E000
7878E000
3FF1C7F8
0FC38FFC
00039F3E
00071E1E
00073C0F
000E3C0F
001E3C0F
001C3C0F
00383C0F
00383C0F
00701E1E
00700F3C
00E00FFC
01E003F0
ENDCHAR
STARTCHAR $0026
ENCODING 38
SWIDTH 794 0
DWIDTH 27 0
BBX 24 25 2 1
BITMAP
07FC00
1FFE00
1FFF00
3E1F00
3E1F00
3E1F00
3E1F00
1E3E00
1F7E00
0FFC00
07F000
0FE000
3FE07C
3FF078
7CF878
FC7C78
F83E78
F81FF8
F80FF0
F807F0
FC03E0
7E0FF0
3FFFF8
1FFFFE
07FC3F
ENDCHAR
STARTCHAR $0027
ENCODING 39
SWIDTH 411 0
DWIDTH 14 0
BBX 5 10 4 15
BITMAP
F8
F8
78
78
78
78
78
78
78
78
ENDCHAR
STARTCHAR $0028
ENCODING 40
SWIDTH 382 0
DWIDTH 13 0
BBX 7 30 3 -5
BITMAP
1E
1E
3E
3C
3C
7C
7C
78
78
F8
F8
F8
F8
F8
F8
F8
F8
F8
F8
F8
F8
78
78
7C
7C
3C
3C
3E
1E
1E
ENDCHAR
STARTCHAR $0029
ENCODING 41
SWIDTH 411 0
DWIDTH 14 0
BBX 8 30 3 -5
BITMAP
F0
78
78
7C
3C
3C
3C
3E
3E
1E
1E
1E
1E
1F
1F
1F
1F
1F
1E
1E
1E
3E
3E
3E
3C
3C
7C
78
78
F0
ENDCHAR
STARTCHAR $002A
ENCODING 42
SWIDTH 647 0
DWIDTH 22 0
BBX 14 13 4 13
BITMAP
1CE0
3CF0
1CE0
0FC0
8784
FFFC
FFFC
E79C
0FC0
1EE0
1CE0
3CF0
0840
ENDCHAR
STARTCHAR $002B
ENCODING 43
SWIDTH 1000 0
DWIDTH 34 0
BBX 20 21 7 0
BITMAP
006000
006000
006000
006000
006000
006000
006000
006000
006000
FFFFF0
FFFFF0
006000
006000
006000
006000
006000
006000
006000
006000
006000
006000
ENDCHAR
STARTCHAR $002C
ENCODING 44
SWIDTH 323 0
DWIDTH 11 0
BBX 7 9 2 -5
BITMAP
3E
3C
3C
78
78
70
F0
F0
E0
ENDCHAR
STARTCHAR $002D
ENCODING 45
SWIDTH 323 0
DWIDTH 11 0
BBX 9 5 1 7
BITMAP
FF80
FF80
FF80
FF80
FF80
ENDCHAR
STARTCHAR $002E
ENCODING 46
SWIDTH 294 0
DWIDTH 10 0
BBX 5 5 3 0
BITMAP
F8
F8
F8
F8
F8
ENDCHAR
STARTCHAR $002F
ENCODING 47
SWIDTH 441 0
DWIDTH 15 0
BBX 11 28 2 -2
BITMAP
00E0
00E0
01C0
01C0
01C0
0380
0380
0380
0380
0700
0700
0700
0E00
0E00
0E00
1C00
1C00
1C00
3800
3800
3800
3800
7000
7000
7000
E000
E000
E000
ENDCHAR
STARTCHAR $0030
ENCODING 48
SWIDTH 558 0
DWIDTH 19 0
BBX 17 25 1 1
BITMAP
07E000
1FFC00
3FFE00
3C1E00
780F00
780F00
780F00
F80F80
F80F80
F80F80
F80F80
F80F80
F80F80
F80F80
F80F80
F80F80
F80F80
F80F80
780F00
780F00
780F00
3C1E00
1FFC00
0FF800
07E000
ENDCHAR
STARTCHAR $0031
ENCODING 49
SWIDTH 558 0
DWIDTH 19 0
BBX 11 25 3 1
BITMAP
03E0
0FE0
1FE0
7FE0
FFE0
FBE0
F3E0
C3E0
03E0
03E0
03E0
03E0
03E0
03E0
03E0
03E0
03E0
03E0
03E0
03E0
03E0
03E0
03E0
03E0
03E0
ENDCHAR
STARTCHAR $0032
ENCODING 50
SWIDTH 558 0
DWIDTH 19 0
BBX 17 25 1 1
BITMAP
07F800
1FFE00
1FFF00
3FFF00
7E1F80
7C0F80
7C0F80
000F80
000F80
001F00
001F00
003E00
007E00
00FC00
01F800
03F000
07E000
0FC000
3F0000
7E0000
FC0000
FFFF80
FFFF80
FFFF80
FFFF80
ENDCHAR
STARTCHAR $0033
ENCODING 51
SWIDTH 558 0
DWIDTH 19 0
BBX 16 25 2 1
BITMAP
1FF0
3FFC
7FFE
FFFE
F83E
F81F
001F
001E
007E
07FC
07F0
07F8
07FC
003E
001F
001F
001F
F81F
F81F
F81F
FC3E
7FFE
7FFC
1FF8
0FE0
ENDCHAR
STARTCHAR $0034
ENCODING 52
SWIDTH 558 0
DWIDTH 19 0
BBX 18 25 1 1
BITMAP
007E00
00FE00
00FE00
01FE00
03FE00
03FE00
07BE00
0FBE00
0F3E00
1E3E00
1E3E00
3C3E00
7C3E00
783E00
F03E00
FFFFC0
FFFFC0
FFFFC0
FFFFC0
003E00
003E00
003E00
003E00
003E00
003E00
ENDCHAR
STARTCHAR $0035
ENCODING 53
SWIDTH 558 0
DWIDTH 19 0
BBX 17 25 1 1
BITMAP
FFFE00
FFFE00
FFFE00
FFFE00
F80000
F80000
F80000
F80000
F9F000
FFFC00
FFFE00
FC3F00
F81F00
F80F00
000F80
000F80
000F80
000F00
F80F00
F81F00
FC3F00
7FFE00
7FFC00
3FF800
0FE000
ENDCHAR
STARTCHAR $0036
ENCODING 54
SWIDTH 558 0
DWIDTH 19 0
BBX 17 25 1 1
BITMAP
03F000
0FFC00
1FFE00
3FFF00
3E1F00
7E0F80
7C0000
7C0000
FC0000
F8F800
FBFE00
FFFE00
FF1F00
FE0F80
FC0F80
FC0F80
FC0F80
FC0F80
7C0F80
7E0F80
7F1F00
3FFF00
1FFE00
0FFC00
03F000
ENDCHAR
STARTCHAR $0037
ENCODING 55
SWIDTH 558 0
DWIDTH 19 0
BBX 16 25 2 1
BITMAP
FFFF
FFFF
FFFF
FFFF
000F
001F
001E
003E
003E
007C
007C
00F8
00F8
00F0
01F0
01F0
03E0
03E0
07C0
07C0
0F80
0F80
0F80
1F00
1F00
ENDCHAR
STARTCHAR $0038
ENCODING 56
SWIDTH 558 0
DWIDTH 19 0
BBX 17 25 1 1
BITMAP
07F000
1FFC00
7FFF00
7FFF00
FC1F80
F80F80
F80F80
780F00
7C1F00
3FFE00
0FF800
1FF800
3FFE00
7C3F00
F80F00
F80F80
F80F80
F80F80
F80F80
F80F80
FC1F80
7FFF00
7FFF00
1FFC00
07F000
ENDCHAR
STARTCHAR $0039
ENCODING 57
SWIDTH 558 0
DWIDTH 19 0
BBX 17 25 1 1
BITMAP
07F000
1FFC00
3FFE00
7FFE00
7C3F00
F81F00
F81F00
F81F80
F81F80
F81F80
F83F80
7C3F80
7FFF80
3FEF80
0FCF80
000F80
001F00
001F00
F81F00
783F00
7C7E00
3FFE00
3FFC00
1FF800
07E000
ENDCHAR
STARTCHAR $003A
ENCODING 58
SWIDTH 323 0
DWIDTH 11 0
BBX 5 18 5 0
BITMAP
F8
F8
F8
F8
F8
00
00
00
00
00
00
00
00
F8
F8
F8
F8
F8
ENDCHAR
STARTCHAR $003B
ENCODING 59
SWIDTH 323 0
DWIDTH 11 0
BBX 7 22 2 -4
BITMAP
3E
3E
3E
3E
3E
00
00
00
00
00
00
00
00
3E
3C
7C
78
78
70
F0
E0
E0
ENDCHAR
STARTCHAR $003C
ENCODING 60
SWIDTH 1000 0
DWIDTH 34 0
BBX 21 19 7 1
BITMAP
000008
000038
0001F8
000FC0
003E00
01F800
07C000
3E0000
F80000
C00000
F80000
3E0000
07C000
01F800
003E00
0007C0
0001F8
000038
000008
ENDCHAR
STARTCHAR $003D
ENCODING 61
SWIDTH 1000 0
DWIDTH 34 0
BBX 20 8 7 6
BITMAP
FFFFF0
FFFFF0
000000
000000
000000
000000
FFFFF0
FFFFF0
ENDCHAR
STARTCHAR $003E
ENCODING 62
SWIDTH 1000 0
DWIDTH 34 0
BBX 21 17 7 2
BITMAP
E00000
F80000
3F0000
07E000
00F800
003F00
0007C0
0000F8
000038
0000F8
0007C0
003F00
00F800
07E000
1F0000
F80000
E00000
ENDCHAR
STARTCHAR $003F
ENCODING 63
SWIDTH 558 0
DWIDTH 19 0
BBX 16 25 1 1
BITMAP
1FF0
3FF8
7FFC
F83E
701E
301F
001F
001E
003E
003C
0078
00F0
01E0
03C0
0380
0380
0380
0380
0380
0000
0000
07C0
07C0
07C0
07C0
ENDCHAR
STARTCHAR $0040
ENCODING 64
SWIDTH 1029 0
DWIDTH 35 0
BBX 33 32 1 -6
BITMAP
001FFE0000
007FFF8000
01FFFFE000
03FFFFF000
07F003F800
0FC001FC00
1F80007C00
3F079F7E00
3E1FFF3F00
7C3FFF1F00
7C7FFF1F00
787E3F1F00
F8FC1F0F00
F8F81F0F80
F8F81F0F80
F8F81F0F80
F8F81F0F00
F8F81F0F00
F8F81F0F00
F8F81F1F00
787C3F1E00
7C7C7FBE00
7C3FFFFC00
3E1FE7F800
3F07C3F000
1F80000000
0FC0000000
07F8030000
03FFFF0000
01FFFF0000
007FFF0000
0007FF0000
ENDCHAR
STARTCHAR $0041
ENCODING 65
SWIDTH 705 0
DWIDTH 24 0
BBX 23 25 1 0
BITMAP
007C00
00FC00
00FE00
00FE00
01FE00
01FF00
03FF00
03CF00
03CF80
07CF80
0787C0
0787C0
0F87C0
0F03E0
1F03E0
1F03F0
1FFFF0
3FFFF0
3FFFF8
7FFFF8
7C00F8
7C00FC
F8007C
F8007E
F0003E
ENDCHAR
STARTCHAR $0042
ENCODING 66
SWIDTH 676 0
DWIDTH 23 0
BBX 19 25 2 0
BITMAP
FFF800
FFFE00
FFFF00
FFFF00
F83F00
F80F80
F80F80
F80F00
F80F00
F83F00
FFFE00
FFF800
FFFC00
FFFF00
F80FC0
F803C0
F803E0
F803E0
F803E0
F803E0
F807E0
FFFFC0
FFFF80
FFFF00
FFFC00
ENDCHAR
STARTCHAR $0043
ENCODING 67
SWIDTH 735 0
DWIDTH 25 0
BBX 21 25 2 1
BITMAP
03FF00
0FFFC0
1FFFE0
3FFFF0
3E03F0
7C01F0
7801F8
7800F8
F80000
F80000
F80000
F80000
F80000
F80000
F80000
F80000
F801F8
7801F8
7C01F8
7C03F0
3F07F0
1FFFE0
0FFFC0
07FF00
01FC00
ENDCHAR
STARTCHAR $0044
ENCODING 68
SWIDTH 676 0
DWIDTH 23 0
BBX 20 25 2 0
BITMAP
FFE000
FFFC00
FFFE00
FFFF00
F83F80
F80FC0
F807C0
F803E0
F803E0
F801E0
F801E0
F801F0
F801F0
F801F0
F801F0
F801E0
F803E0
F803E0
F807C0
F80FC0
F83F80
FFFF00
FFFE00
FFFC00
FFE000
ENDCHAR
STARTCHAR $0045
ENCODING 69
SWIDTH 617 0
DWIDTH 21 0
BBX 17 25 2 0
BITMAP
FFFF00
FFFF00
FFFF00
FFFF00
F80000
F80000
F80000
F80000
F80000
F80000
FFFF00
FFFF00
FFFF00
FFFF00
F80000
F80000
F80000
F80000
F80000
F80000
F80000
FFFF80
FFFF80
FFFF80
FFFF80
ENDCHAR
STARTCHAR $0046
ENCODING 70
SWIDTH 558 0
DWIDTH 19 0
BBX 16 25 2 0
BITMAP
FFFF
FFFF
FFFF
FFFF
F800
F800
F800
F800
F800
F800
FFFE
FFFE
FFFE
FFFE
F800
F800
F800
F800
F800
F800
F800
F800
F800
F800
F800
ENDCHAR
STARTCHAR $0047
ENCODING 71
SWIDTH 764 0
DWIDTH 26 0
BBX 22 25 2 1
BITMAP
01FFC0
07FFE0
0FFFF0
1FFFF8
3F00F8
3E007C
7C007C
7C0000
F80000
F80000
F80000
F807FC
F807FC
F807FC
F807FC
F8007C
F8007C
7C007C
7E007C
3F007C
3FC07C
1FFFFC
0FFFFC
03FFFC
007FC0
ENDCHAR
STARTCHAR $0048
ENCODING 72
SWIDTH 705 0
DWIDTH 24 0
BBX 20 25 2 0
BITMAP
F801F0
F801F0
F801F0
F801F0
F801F0
F801F0
F801F0
F801F0
F801F0
F801F0
FFFFF0
FFFFF0
FFFFF0
FFFFF0
F801F0
F801F0
F801F0
F801F0
F801F0
F801F0
F801F0
F801F0
F801F0
F801F0
F801F0
ENDCHAR
STARTCHAR $0049
ENCODING 73
SWIDTH 264 0
DWIDTH 9 0
BBX 5 25 2 0
BITMAP
F8
F8
F8
F8
F8
F8
F8
F8
F8
F8
F8
F8
F8
F8
F8
F8
F8
F8
F8
F8
F8
F8
F8
F8
F8
ENDCHAR
STARTCHAR $004A
ENCODING 74
SWIDTH 617 0
DWIDTH 21 0
BBX 17 25 2 0
BITMAP
000F80
000F80
000F80
000F80
000F80
000F80
000F80
000F80
000F80
000F80
000F80
000F80
000F80
000F80
000F80
000F80
000F80
F80F80
F80F80
F80F80
FC1F00
7FFF00
7FFE00
3FFC00
0FF000
ENDCHAR
STARTCHAR $004B
ENCODING 75
SWIDTH 676 0
DWIDTH 23 0
BBX 19 25 2 0
BITMAP
F807C0
F80F80
F81F80
F83F00
F87E00
F87C00
F8F800
F9F800
FBF000
FBE000
FFC000
FFC000
FFE000
FFF000
FBF000
F9F800
F9FC00
F8FC00
F87E00
F83F00
F83F80
F81F80
F80FC0
F80FE0
F807E0
ENDCHAR
STARTCHAR $004C
ENCODING 76
SWIDTH 558 0
DWIDTH 19 0
BBX 16 25 2 0
BITMAP
F800
F800
F800
F800
F800
F800
F800
F800
F800
F800
F800
F800
F800
F800
F800
F800
F800
F800
F800
F800
F800
FFFF
FFFF
FFFF
FFFF
ENDCHAR
STARTCHAR $004D
ENCODING 77
SWIDTH 911 0
DWIDTH 31 0
BBX 27 25 2 0
BITMAP
FF001FE0
FF003FE0
FF803FE0
FF803FE0
FF807FE0
FFC07FE0
FFC07BE0
FBC07BE0
FBE0FBE0
FBE0F3E0
FBE0F3E0
F9F1F3E0
F9F1F3E0
F9F1E3E0
F8F3E3E0
F8FBE3E0
F8FBC3E0
F87FC3E0
F87FC3E0
F87F83E0
F87F83E0
F83F83E0
F83F83E0
F83F03E0
F81F03E0
ENDCHAR
STARTCHAR $004E
ENCODING 78
SWIDTH 735 0
DWIDTH 25 0
BBX 21 25 2 0
BITMAP
FE00F8
FF00F8
FF00F8
FF80F8
FF80F8
FFC0F8
FFC0F8
FBE0F8
FBE0F8
F9E0F8
F9F0F8
F8F0F8
F8F8F8
F878F8
F87CF8
F83CF8
F83EF8
F81EF8
F81FF8
F81FF8
F80FF8
F80FF8
F807F8
F807F8
F803F8
ENDCHAR
STARTCHAR $004F
ENCODING 79
SWIDTH 794 0
DWIDTH 27 0
BBX 23 25 2 1
BITMAP
03FF80
07FFC0
1FFFF0
1FFFF0
3F01F8
7E00FC
7C007C
78003C
F8003E
F8003E
F8003E
F8003E
F8003E
F8003E
F8003E
F8003E
F8003E
7C007C
7C007C
3E00F8
3F83F8
1FFFF0
0FFFE0
07FFC0
00FE00
ENDCHAR
STARTCHAR $0050
ENCODING 80
SWIDTH 617 0
DWIDTH 21 0
BBX 18 25 2 0
BITMAP
FFF000
FFFC00
FFFF00
FFFF80
F81F80
F80F80
F807C0
F807C0
F807C0
F80F80
F81F80
FFFF80
FFFF00
FFFC00
FFF000
F80000
F80000
F80000
F80000
F80000
F80000
F80000
F80000
F80000
F80000
ENDCHAR
STARTCHAR $0051
ENCODING 81
SWIDTH 852 0
DWIDTH 29 0
BBX 26 25 2 1
BITMAP
03FF8000
07FFC000
1FFFE000
1FFFF000
3F01F800
7E00FC00
7C007C00
78003C00
F8003E00
F8003E00
F8003E00
F8003E00
F8003E00
F8003E00
F8003E00
F8003E00
78003C00
7C007C00
7C007C00
3E00F800
3F83F000
1FFFFFC0
0FFFFFC0
03FFFFC0
00FFFFC0
ENDCHAR
STARTCHAR $0052
ENCODING 82
SWIDTH 647 0
DWIDTH 22 0
BBX 19 25 2 0
BITMAP
FFFC00
FFFF00
FFFF80
FFFFC0
F80FC0
F807E0
F803E0
F803E0
F803C0
F807C0
F81F80
FFFF00
FFFC00
FFFF00
FFFF80
F80F80
F807C0
F807C0
F807C0
F803C0
F803C0
F803C0
F803E0
F803E0
F803E0
ENDCHAR
STARTCHAR $0053
ENCODING 83
SWIDTH 676 0
DWIDTH 23 0
BBX 20 25 2 1
BITMAP
07FE00
0FFF00
1FFF80
3FFFC0
7E07C0
7C03C0
7C03E0
7C0000
7C0000
7F0000
3FF000
1FFE00
07FF80
01FFC0
001FE0
0003E0
0001F0
F801F0
F801F0
F803E0
7E07E0
7FFFC0
3FFF80
0FFF00
03F800
ENDCHAR
STARTCHAR $0054
ENCODING 84
SWIDTH 647 0
DWIDTH 22 0
BBX 20 25 1 0
BITMAP
FFFFF0
FFFFF0
FFFFF0
FFFFF0
01F000
01F000
01F000
01F000
01F000
01F000
01F000
01F000
01F000
01F000
01F000
01F000
01F000
01F000
01F000
01F000
01F000
01F000
01F000
01F000
01F000
ENDCHAR
STARTCHAR $0055
ENCODING 85
SWIDTH 735 0
DWIDTH 25 0
BBX 21 25 2 0
BITMAP
F800F8
F800F8
F800F8
F800F8
F800F8
F800F8
F800F8
F800F8
F800F8
F800F8
F800F8
F800F8
F800F8
F800F8
F800F8
F800F8
F800F0
F800F0
7801F0
7C03F0
7F07E0
3FFFC0
1FFF80
0FFF00
03FC00
ENDCHAR
STARTCHAR $0056
ENCODING 86
SWIDTH 735 0
DWIDTH 25 0
BBX 24 25 1 0
BITMAP
F8003F
F8003E
FC003E
7C007C
7C007C
7E007C
3E00F8
3F00F8
3F01F0
1F01F0
1F81F0
1F83E0
0F83E0
0FC3E0
07C7C0
07C7C0
07E780
03EF80
03FF80
03FF00
01FF00
01FE00
01FE00
00FE00
00FC00
ENDCHAR
STARTCHAR $0057
ENCODING 87
SWIDTH 1000 0
DWIDTH 34 0
BBX 34 25 0 0
BITMAP
FC03F00FC0
FC03F00F80
7C03F00F80
7E07F80F80
7E07F80F80
7E07F81F00
3E07F81F00
3E0FFC1F00
3F0F3C1E00
3F0F3C3E00
1F0F3C3E00
1F1F3E3E00
1F1E1E3C00
1F9E1E3C00
0F9E1E7C00
0FBE1F7C00
0FBC0F7800
07FC0F7800
07FC0F7800
07FC0FF800
07F807F000
03F807F000
03F807F000
03F807F000
03F003E000
ENDCHAR
STARTCHAR $0058
ENCODING 88
SWIDTH 705 0
DWIDTH 24 0
BBX 22 25 1 0
BITMAP
FC00F8
7E01F8
3E01F0
3F03E0
1F87C0
0F87C0
0FCF80
07EF00
03FF00
03FE00
01FC00
00FC00
00FC00
01FE00
03FE00
03FF00
07DF80
0F8F80
0F0FC0
1F07E0
3E03E0
3E03F0
7C01F8
F801F8
F800FC
ENDCHAR
STARTCHAR $0059
ENCODING 89
SWIDTH 647 0
DWIDTH 22 0
BBX 21 25 1 0
BITMAP
FC01F8
FC01F0
7E03E0
7E03E0
3F07C0
1F07C0
1F8F80
0F8F80
0FDF00
07DF00
07FE00
03FE00
03FC00
01F800
01F800
00F000
00F800
00F800
00F800
00F800
00F800
00F800
00F800
00F800
00F800
ENDCHAR
STARTCHAR $005A
ENCODING 90
SWIDTH 647 0
DWIDTH 22 0
BBX 18 25 2 0
BITMAP
7FFFC0
7FFFC0
7FFFC0
7FFFC0
000FC0
001F80
003F00
003F00
007E00
00FC00
01FC00
01F800
03F000
07E000
07E000
0FC000
1F8000
3F8000
3F0000
7E0000
FC0000
FFFFC0
FFFFC0
FFFFC0
FFFFC0
ENDCHAR
STARTCHAR $005B
ENCODING 91
SWIDTH 382 0
DWIDTH 13 0
BBX 8 32 3 -7
BITMAP
FF
FF
FF
F8
F8
F8
F8
F8
F8
F8
F8
F8
F8
F8
F8
F8
F8
F8
F8
F8
F8
F8
F8
F8
F8
F8
F8
F8
F8
FF
FF
FF
ENDCHAR
STARTCHAR $005C
ENCODING 92
SWIDTH 441 0
DWIDTH 15 0
BBX 11 28 2 -2
BITMAP
E000
E000
F000
F000
F000
7000
7800
7800
3800
3C00
3C00
1C00
1E00
1E00
1E00
0F00
0F00
0F00
0700
0780
0780
0380
03C0
03C0
01C0
01E0
01E0
01E0
ENDCHAR
STARTCHAR $005D
ENCODING 93
SWIDTH 382 0
DWIDTH 13 0
BBX 8 32 3 -7
BITMAP
FF
FF
FF
1F
1F
1F
1F
1F
1F
1F
1F
1F
1F
1F
1F
1F
1F
1F
1F
1F
1F
1F
1F
1F
1F
1F
1F
1F
1F
FF
FF
FF
ENDCHAR
STARTCHAR $005E
ENCODING 94
SWIDTH 1000 0
DWIDTH 34 0
BBX 18 21 8 0
BITMAP
00C000
00E000
01E000
01E000
013000
033000
021800
061800
061800
040C00
0C0C00
0C0E00
180600
180600
180700
300300
300300
700180
600180
6001C0
C000C0
ENDCHAR
STARTCHAR $005F
ENCODING 95
SWIDTH 500 0
DWIDTH 17 0
BBX 17 3 0 -5
BITMAP
FFFF80
FFFF80
FFFF80
ENDCHAR
STARTCHAR $0060
ENCODING 96
SWIDTH 264 0
DWIDTH 9 0
BBX 7 7 -1 21
BITMAP
F8
78
3C
3C
1C
0E
06
ENDCHAR
STARTCHAR $0061
ENCODING 97
SWIDTH 558 0
DWIDTH 19 0
BBX 15 18 2 0
BITMAP
07E0
3FF8
7FFC
7C3E
783E
003E
0FFE
3FFE
7FFE
7C3E
F83E
F83E
F83E
F83E
FC7E
7FFE
3FDE
1F1E
ENDCHAR
STARTCHAR $0062
ENCODING 98
SWIDTH 588 0
DWIDTH 20 0
BBX 17 25 2 0
BITMAP
F80000
F80000
F80000
F80000
F80000
F80000
F80000
F9F000
FFFC00
FFFE00
FE3F00
FC1F00
F80F80
F80F80
F80F80
F80F80
F80F80
F80F80
F80F80
F80F80
FC1F00
FE3F00
FFFE00
FBFC00
F9F000
ENDCHAR
STARTCHAR $0063
ENCODING 99
SWIDTH 529 0
DWIDTH 18 0
BBX 15 18 2 0
BITMAP
07E0
1FF8
3FFC
7C7C
783C
F83E
F800
F800
F800
F800
F800
F83E
F83E
783C
7C7C
3FFC
1FF8
0FE0
ENDCHAR
STARTCHAR $0064
ENCODING 100
SWIDTH 617 0
DWIDTH 21 0
BBX 17 25 2 0
BITMAP
000F80
000F80
000F80
000F80
000F80
000F80
000F80
07CF80
1FFF80
3FFF80
7E3F80
7C1F80
F80F80
F80F80
F80F80
F80F80
F80F80
F80F80
F80F80
F80F80
7C1F80
7E3F80
3FFF80
1FEF80
07CF80
ENDCHAR
STARTCHAR $0065
ENCODING 101
SWIDTH 558 0
DWIDTH 19 0
BBX 15 18 2 0
BITMAP
07E0
1FF8
3FFC
7C3C
783E
F81E
F81E
FFFE
FFFE
FFFE
F800
F800
F81E
783E
7C3E
3FFC
1FF8
07E0
ENDCHAR
STARTCHAR $0066
ENCODING 102
SWIDTH 382 0
DWIDTH 13 0
BBX 12 25 1 0
BITMAP
07F0
0FF0
1FF0
1F00
1F00
1F00
1F00
FFE0
FFE0
FFE0
1F00
1F00
1F00
1F00
1F00
1F00
1F00
1F00
1F00
1F00
1F00
1F00
1F00
1F00
1F00
ENDCHAR
STARTCHAR $0067
ENCODING 103
SWIDTH 617 0
DWIDTH 21 0
BBX 17 25 2 -7
BITMAP
07CF80
1FFF80
3FFF80
7E3F80
7C1F80
F80F80
F80F80
F80F80
F80F80
F80F80
F80F80
F80F80
F80F80
7C1F80
7E3F80
3FFF80
1FEF80
07CF80
000F80
000F80
7C0F80
7C1F00
3FFE00
1FFC00
07F000
ENDCHAR
STARTCHAR $0068
ENCODING 104
SWIDTH 588 0
DWIDTH 20 0
BBX 16 25 2 0
BITMAP
F800
F800
F800
F800
F800
F800
F800
F9F8
FFFC
FFFE
FE3F
FC1F
F81F
F81F
F81F
F81F
F81F
F81F
F81F
F81F
F81F
F81F
F81F
F81F
F81F
ENDCHAR
STARTCHAR $0069
ENCODING 105
SWIDTH 264 0
DWIDTH 9 0
BBX 5 25 2 0
BITMAP
F8
F8
F8
F8
F8
00
00
F8
F8
F8
F8
F8
F8
F8
F8
F8
F8
F8
F8
F8
F8
F8
F8
F8
F8
ENDCHAR
STARTCHAR $006A
ENCODING 106
SWIDTH 352 0
DWIDTH 12 0
BBX 6 32 4 -7
BITMAP
7C
7C
7C
7C
7C
00
00
7C
7C
7C
7C
7C
7C
7C
7C
7C
7C
7C
7C
7C
7C
7C
7C
7C
7C
7C
7C
7C
FC
FC
F8
F0
ENDCHAR
STARTCHAR $006B
ENCODING 107
SWIDTH 558 0
DWIDTH 19 0
BBX 16 25 2 0
BITMAP
F800
F800
F800
F800
F800
F800
F800
F83E
F87C
F8F8
F9F8
F9F0
FBE0
FFC0
FFC0
FFC0
FFC0
FBE0
FBF0
F9F0
F8F8
F8FC
F87C
F87E
F83F
ENDCHAR
STARTCHAR $006C
ENCODING 108
SWIDTH 264 0
DWIDTH 9 0
BBX 5 25 2 0
BITMAP
F8
F8
F8
F8
F8
F8
F8
F8
F8
F8
F8
F8
F8
F8
F8
F8
F8
F8
F8
F8
F8
F8
F8
F8
F8
ENDCHAR
STARTCHAR $006D
ENCODING 109
SWIDTH 911 0
DWIDTH 31 0
BBX 27 18 2 0
BITMAP
F9F83E00
FBFC7F80
FFFEFFC0
FE3FC7C0
FC3F87C0
F81F03E0
F81F03E0
F81F03E0
F81F03E0
F81F03E0
F81F03E0
F81F03E0
F81F03E0
F81F03E0
F81F03E0
F81F03E0
F81F03E0
F81F03E0
ENDCHAR
STARTCHAR $006E
ENCODING 110
SWIDTH 588 0
DWIDTH 20 0
BBX 16 18 2 0
BITMAP
F9F8
FBFC
FFFE
FC3F
FC1F
F81F
F81F
F81F
F81F
F81F
F81F
F81F
F81F
F81F
F81F
F81F
F81F
F81F
ENDCHAR
STARTCHAR $006F
ENCODING 111
SWIDTH 617 0
DWIDTH 21 0
BBX 18 18 2 0
BITMAP
03F000
0FFC00
3FFE00
3E1F00
7C0F80
780F80
F80780
F80780
F807C0
F807C0
F807C0
F80780
780F80
7C0F80
3E1F00
3FFE00
0FFC00
03F000
ENDCHAR
STARTCHAR $0070
ENCODING 112
SWIDTH 588 0
DWIDTH 20 0
BBX 17 25 2 -7
BITMAP
F9F000
FBFC00
FFFE00
FE3F00
FC1F00
F80F80
F80F80
F80F80
F80F80
F80F80
F80F80
F80F80
F80F80
FC1F00
FE3F00
FFFE00
FFFC00
F9F000
F80000
F80000
F80000
F80000
F80000
F80000
F80000
ENDCHAR
STARTCHAR $0071
ENCODING 113
SWIDTH 617 0
DWIDTH 21 0
BBX 17 25 2 -7
BITMAP
07CF80
1FEF80
3FFF80
7E3F80
7C1F80
F80F80
F80F80
F80F80
F80F80
F80F80
F80F80
F80F80
F80F80
7C1F80
7E3F80
3FFF80
1FFF80
07CF80
000F80
000F80
000F80
000F80
000F80
000F80
000F80
ENDCHAR
STARTCHAR $0072
ENCODING 114
SWIDTH 382 0
DWIDTH 13 0
BBX 11 18 2 0
BITMAP
F9E0
FBE0
FFE0
FFE0
FF00
FC00
F800
F800
F800
F800
F800
F800
F800
F800
F800
F800
F800
F800
ENDCHAR
STARTCHAR $0073
ENCODING 115
SWIDTH 529 0
DWIDTH 18 0
BBX 15 18 2 0
BITMAP
0FE0
3FF8
7FF8
7C7C
F87C
F87C
7E00
7FC0
3FF8
0FFC
01FC
007E
F83E
F83E
F87C
7FFC
3FF8
0FC0
ENDCHAR
STARTCHAR $0074
ENCODING 116
SWIDTH 411 0
DWIDTH 14 0
BBX 13 23 1 0
BITMAP
0100
0700
1F00
1F00
1F00
FFF0
FFF0
FFF0
1F00
1F00
1F00
1F00
1F00
1F00
1F00
1F00
1F00
1F00
1F00
0F80
0FF8
07F8
03F0
ENDCHAR
STARTCHAR $0075
ENCODING 117
SWIDTH 588 0
DWIDTH 20 0
BBX 16 18 2 0
BITMAP
F81F
F81F
F81F
F81F
F81F
F81F
F81F
F81F
F81F
F81F
F81F
F81F
F81F
F81F
FC3F
7FFF
3FDF
1F9F
ENDCHAR
STARTCHAR $0076
ENCODING 118
SWIDTH 558 0
DWIDTH 19 0
BBX 18 18 0 0
BITMAP
F807C0
7C07C0
7C0F80
7C0F80
3E0F80
3E1F00
3E1F00
1F1E00
1F1E00
0F3E00
0FBC00
0FBC00
07FC00
07F800
07F800
03F000
03F000
01F000
ENDCHAR
STARTCHAR $0077
ENCODING 119
SWIDTH 852 0
DWIDTH 29 0
BBX 29 18 0 0
BITMAP
F80F80F8
7C1FC0F0
7C1FC1F0
7C1FC1F0
7C1FE1E0
3E3FE1E0
3E3DE3E0
3E3DE3E0
1F7DF3C0
1F78F7C0
1F78F7C0
0FF8FF80
0FF87F80
0FF07F80
0FF07F80
07F07F00
07E03F00
07E03F00
ENDCHAR
STARTCHAR $0078
ENCODING 120
SWIDTH 558 0
DWIDTH 19 0
BBX 17 18 1 0
BITMAP
FC1F00
7C1F00
7E3E00
3F3C00
1F7C00
0FF800
0FF800
07F000
07E000
07F000
0FF800
1FF800
1EFC00
3E7E00
3C3E00
7C3F00
F81F00
F80F80
ENDCHAR
STARTCHAR $0079
ENCODING 121
SWIDTH 529 0
DWIDTH 18 0
BBX 17 25 1 -7
BITMAP
F80F80
F80F80
F80F00
7C1F00
7C1F00
7C1E00
3E3E00
3E3C00
1E3C00
1F7C00
1F7800
0FF800
0FF800
0FF000
07F000
07F000
03E000
03E000
03E000
03C000
07C000
078000
078000
0F8000
0F8000
ENDCHAR
STARTCHAR $007A
ENCODING 122
SWIDTH 529 0
DWIDTH 18 0
BBX 14 18 2 0
BITMAP
FFFC
FFFC
FFFC
007C
00F8
01F8
03F0
07E0
07C0
0F80
1F80
3F00
7E00
7C00
F800
FFFC
FFFC
FFFC
ENDCHAR
STARTCHAR $007B
ENCODING 123
SWIDTH 529 0
DWIDTH 18 0
BBX 13 35 3 -8
BITMAP
00F8
03F8
07F8
0FC0
0F80
0F80
0F80
0F80
0F80
0F80
0F80
0F00
0F00
0F00
1F00
7E00
FC00
F000
FC00
7E00
3F00
1F00
0F00
0F00
0F80
0F80
0F80
0F80
0F80
0F80
0F80
0FC0
07F8
03F8
00F8
ENDCHAR
STARTCHAR $007C
ENCODING 124
SWIDTH 352 0
DWIDTH 12 0
BBX 2 37 5 -9
BITMAP
C0
C0
C0
C0
C0
C0
C0
C0
C0
C0
C0
C0
C0
C0
C0
C0
C0
C0
C0
C0
C0
C0
C0
C0
C0
C0
C0
C0
C0
C0
C0
C0
C0
C0
C0
C0
C0
ENDCHAR
STARTCHAR $007D
ENCODING 125
SWIDTH 500 0
DWIDTH 17 0
BBX 13 35 2 -8
BITMAP
F800
FE00
FF00
1F00
0F00
0F80
0F80
0F80
0F80
0F80
0F80
0F80
0F80
0780
07C0
03E0
01F8
00F8
01F8
03E0
07C0
0F80
0F80
0F80
0F80
0F80
0F80
0F80
0F80
0F80
0F00
1F00
FF00
FE00
F800
ENDCHAR
STARTCHAR $007E
ENCODING 126
SWIDTH 529 0
DWIDTH 18 0
BBX 18 4 0 7
BITMAP
1FC3C0
3FFF80
7FFF00
F07E00
ENDCHAR
STARTCHAR $00A0
ENCODING 160
SWIDTH 294 0
DWIDTH 10 0
BBX 0 0 0 0
BITMAP
ENDCHAR
STARTCHAR $00A1
ENCODING 161
SWIDTH 382 0
DWIDTH 13 0
BBX 5 25 4 -7
BITMAP
F8
F8
F8
F8
00
00
00
F8
F8
F8
F8
F8
F8
F8
F8
F8
F8
F8
F8
F8
F8
F8
F8
F8
F8
ENDCHAR
STARTCHAR $00A2
ENCODING 162
SWIDTH 558 0
DWIDTH 19 0
BBX 15 26 2 -4
BITMAP
0030
0030
0030
0020
07E0
1FF8
3FFC
7CFC
78FE
F8FE
F980
F980
F980
F900
FB00
FB3E
FB3E
7E3E
7E7C
3FFC
1FF8
0FE0
0C00
1800
1800
1800
ENDCHAR
STARTCHAR $00A3
ENCODING 163
SWIDTH 588 0
DWIDTH 20 0
BBX 17 25 2 1
BITMAP
07FE00
0FFF00
1FFF00
1F0F80
3E0F80
3E0000
3E0000
3E0000
3E0000
FFF000
FFF000
FFF000
3E0000
3E0000
3E0000
3E0000
3E0000
3E0000
3E0000
3E0000
3E0000
3E0000
FFFF80
FFFF80
FFFF80
ENDCHAR
STARTCHAR $00A4
ENCODING 164
SWIDTH 588 0
DWIDTH 20 0
BBX 18 19 1 6
BITMAP
400080
E001C0
73E380
3FFF00
1E1E00
1C0E00
180600
300300
300300
300300
300300
300300
180600
1C0E00
1E1E00
3FFF00
73F380
E001C0
400080
ENDCHAR
STARTCHAR $00A5
ENCODING 165
SWIDTH 617 0
DWIDTH 21 0
BBX 19 25 1 0
BITMAP
F803E0
F807E0
7C07C0
7C07C0
3E0F80
3E0F80
1F1F00
FF1FE0
FFBFE0
0FBE00
07FC00
07FC00
03F800
FFFFE0
FFFFE0
01F000
01F000
01F000
01F000
01F000
01F000
01F000
01F000
01F000
01F000
ENDCHAR
STARTCHAR $00A6
ENCODING 166
SWIDTH 352 0
DWIDTH 12 0
BBX 2 33 5 -7
BITMAP
C0
C0
C0
C0
C0
C0
C0
C0
C0
C0
C0
C0
C0
C0
00
00
00
00
00
C0
C0
C0
C0
C0
C0
C0
C0
C0
C0
C0
C0
C0
C0
ENDCHAR
STARTCHAR $00A7
ENCODING 167
SWIDTH 470 0
DWIDTH 16 0
BBX 14 31 1 -5
BITMAP
1FF0
3FF8
7FF8
7C18
F800
F800
7C00
7E00
3F80
1FC0
1FF0
3FF8
7CF8
F87C
F03C
F078
F078
FDF0
7FE0
3FC0
1FE0
07F0
01F8
00FC
007C
007C
80F8
E1F8
FFF0
FFE0
3F80
ENDCHAR
STARTCHAR $00A8
ENCODING 168
SWIDTH 323 0
DWIDTH 11 0
BBX 11 4 0 22
BITMAP
F1E0
F1E0
F1E0
F1E0
ENDCHAR
STARTCHAR $00A9
ENCODING 169
SWIDTH 852 0
DWIDTH 29 0
BBX 25 25 2 1
BITMAP
00FFC000
03FFE000
0F007800
1E003C00
183F0E00
387F8600
70FFC700
61E3C300
E1C1E380
C3C1E180
C3C00180
C3C00180
C3C00180
C3C00180
C3C1E180
E3C1E380
61E3C300
71FFC300
30FF8700
383E0E00
1C001C00
0F007800
07C1F000
01FFE000
007F0000
ENDCHAR
STARTCHAR $00AA
ENCODING 170
SWIDTH 411 0
DWIDTH 14 0
BBX 12 17 1 8
BITMAP
0F80
3FC0
38E0
70E0
00E0
0FE0
3FE0
78E0
70E0
70E0
79E0
3FE0
1E60
0000
0000
FFF0
FFF0
ENDCHAR
STARTCHAR $00AB
ENCODING 171
SWIDTH 617 0
DWIDTH 21 0
BBX 17 14 2 2
BITMAP
1F0F80
1E1F00
3E1F00
3C3E00
7C3E00
7C7C00
F87C00
F87C00
7C7C00
7C3E00
3C3E00
3E1F00
1E0F00
1F0F80
ENDCHAR
STARTCHAR $00AC
ENCODING 172
SWIDTH 617 0
DWIDTH 21 0
BBX 18 8 2 7
BITMAP
FFFFC0
FFFFC0
0000C0
0000C0
0000C0
0000C0
0000C0
0000C0
ENDCHAR
STARTCHAR $00AE
ENCODING 174
SWIDTH 852 0
DWIDTH 29 0
BBX 25 25 2 1
BITMAP
00FFC000
03FFE000
0F007800
1E003C00
19FF8E00
39FFC600
71FFE700
61C1E300
E1C0E380
C1C1E180
C1FF8180
C1FF8180
C1FFC180
C1C1C180
C1C1C180
E1C0E380
61C0E300
71C0E300
31C0E700
38000E00
1C001C00
0F007800
07C1F000
01FFE000
007F0000
ENDCHAR
STARTCHAR $00AF
ENCODING 175
SWIDTH 323 0
DWIDTH 11 0
BBX 11 3 0 22
BITMAP
FFE0
FFE0
FFE0
ENDCHAR
STARTCHAR $00B0
ENCODING 176
SWIDTH 323 0
DWIDTH 11 0
BBX 7 7 2 18
BITMAP
38
C4
82
82
82
C4
78
ENDCHAR
STARTCHAR $00B1
ENCODING 177
SWIDTH 1000 0
DWIDTH 34 0
BBX 20 21 7 0
BITMAP
006000
006000
006000
006000
006000
006000
FFFFF0
FFFFF0
006000
006000
006000
006000
006000
006000
006000
000000
000000
000000
000000
FFFFF0
FFFFF0
ENDCHAR
STARTCHAR $00B2
ENCODING 178
SWIDTH 382 0
DWIDTH 13 0
BBX 11 13 1 13
BITMAP
3F80
7FC0
F1E0
01E0
01E0
03C0
07C0
0F80
1E00
7C00
F000
FFC0
FFC0
ENDCHAR
STARTCHAR $00B3
ENCODING 179
SWIDTH 382 0
DWIDTH 13 0
BBX 11 14 1 12
BITMAP
7F80
FF80
E3C0
03C0
07C0
1F80
1F80
03C0
01E0
01E0
E1E0
F3C0
7F80
3F00
ENDCHAR
STARTCHAR $00B4
ENCODING 180
SWIDTH 235 0
DWIDTH 8 0
BBX 7 7 2 21
BITMAP
3E
3C
38
78
70
E0
C0
ENDCHAR
STARTCHAR $00B6
ENCODING 182
SWIDTH 558 0
DWIDTH 19 0
BBX 16 31 2 -6
BITMAP
0FFF
3FFF
7F18
FF18
FF18
FF18
FF18
FF18
FF18
FF18
7F18
3F18
1F18
0318
0318
0318
0318
0318
0318
0318
0318
0318
0318
0318
0318
0318
0318
0318
0318
0318
0318
ENDCHAR
STARTCHAR $00B7
ENCODING 183
SWIDTH 294 0
DWIDTH 10 0
BBX 5 5 3 10
BITMAP
F8
F8
F8
F8
F8
ENDCHAR
STARTCHAR $00B8
ENCODING 184
SWIDTH 264 0
DWIDTH 9 0
BBX 9 8 1 -9
BITMAP
3000
3000
3F00
0780
0380
0380
FF00
FE00
ENDCHAR
STARTCHAR $00B9
ENCODING 185
SWIDTH 264 0
DWIDTH 9 0
BBX 6 14 1 12
BITMAP
1C
7C
FC
DC
1C
1C
1C
1C
1C
1C
1C
1C
1C
1C
ENDCHAR
STARTCHAR $00BA
ENCODING 186
SWIDTH 411 0
DWIDTH 14 0
BBX 12 17 1 8
BITMAP
1F80
3FC0
79E0
70E0
E070
E070
E070
E070
E070
70E0
79E0
3FC0
1F80
0000
0000
FFF0
FFF0
ENDCHAR
STARTCHAR $00BB
ENCODING 187
SWIDTH 617 0
DWIDTH 21 0
BBX 16 14 2 2
BITMAP
F078
F87C
7C3C
7C3E
3E1E
3E1F
1F1F
1F1F
3E1F
3E1E
7C3E
7C3C
F87C
F078
ENDCHAR
STARTCHAR $00BC
ENCODING 188
SWIDTH 794 0
DWIDTH 27 0
BBX 25 26 1 0
BITMAP
1C007800
7C007000
FC00F000
9C00E000
1C01C000
1C01C000
1C038000
1C078000
1C070000
1C0E0000
1C0E0000
1C1C0000
1C1C1E00
1C381E00
00783E00
00707E00
00E07E00
00E0EE00
01C1CE00
01C1CE00
03838E00
0703FF80
0703FF80
0E000E00
0E000E00
1C000E00
ENDCHAR
STARTCHAR $00BD
ENCODING 189
SWIDTH 794 0
DWIDTH 27 0
BBX 25 26 1 0
BITMAP
1C007000
7C00E000
FC00E000
DC01C000
1C03C000
1C038000
1C070000
1C070000
1C0E0000
1C0E0000
1C1C0000
1C380000
1C387C00
1C71FF00
0073C780
00E3C780
00C00780
01C00F80
03800F00
03801E00
07003C00
0600F800
0E01F000
0C03C000
1C03FF00
1803FF00
ENDCHAR
STARTCHAR $00BE
ENCODING 190
SWIDTH 794 0
DWIDTH 27 0
BBX 25 25 1 1
BITMAP
7F803C00
FFC03800
E3C07000
03C07000
1F80E000
1F81E000
03C1C000
01E3C000
E1E38000
E3E78000
7FCF0000
3F0E1E00
001E3E00
001C3E00
003C7E00
00386E00
0078EE00
00F1CE00
00F1CE00
01E38E00
01E3FF80
03C3FF80
03800E00
07800E00
0F000E00
ENDCHAR
STARTCHAR $00BF
ENCODING 191
SWIDTH 529 0
DWIDTH 18 0
BBX 16 25 1 -7
BITMAP
03E0
03E0
03E0
03E0
0000
0000
0000
01C0
01C0
01C0
03C0
0780
0F00
1E00
3C00
7C00
F800
F800
F800
F80E
F81F
7C3E
3FFE
1FF8
07E0
ENDCHAR
STARTCHAR $00C0
ENCODING 192
SWIDTH 705 0
DWIDTH 24 0
BBX 23 35 1 0
BITMAP
03C000
03C000
01E000
00E000
007000
003000
000000
000000
000000
000000
007C00
00FC00
00FE00
00FE00
01FE00
01FF00
03FF00
03CF00
03CF80
07CF80
0787C0
0787C0
0F87C0
0F03E0
1F03E0
1F03F0
1FFFF0
3FFFF0
3FFFF8
7FFFF8
7C00F8
7C00FC
F8007C
F8007E
F0003E
ENDCHAR
STARTCHAR $00C1
ENCODING 193
SWIDTH 705 0
DWIDTH 24 0
BBX 23 35 1 0
BITMAP
000F00
000F00
001E00
001C00
003800
003000
007000
000000
000000
000000
007C00
00FC00
00FE00
00FE00
01FE00
01FF00
03FF00
03CF00
03CF80
07CF80
0787C0
0787C0
0F87C0
0F03E0
1F03E0
1F03F0
1FFFF0
3FFFF0
3FFFF8
7FFFF8
7C00F8
7C00FC
F8007C
F8007E
F0003E
ENDCHAR
STARTCHAR $00C2
ENCODING 194
SWIDTH 705 0
DWIDTH 24 0
BBX 23 35 1 0
BITMAP
00FC00
00FC00
00FE00
01CE00
01C700
038700
030380
000000
000000
000000
007C00
00FC00
00FE00
00FE00
01FE00
01FF00
03FF00
03CF00
03CF80
07CF80
0787C0
0787C0
0F87C0
0F03E0
1F03E0
1F03F0
1FFFF0
3FFFF0
3FFFF8
7FFFF8
7C00F8
7C00FC
F8007C
F8007E
F0003E
ENDCHAR
STARTCHAR $00C3
ENCODING 195
SWIDTH 705 0
DWIDTH 24 0
BBX 23 34 1 0
BITMAP
000180
01FF00
03FF00
03FE00
020000
000000
000000
000000
000000
007C00
00FC00
00FE00
00FE00
01FE00
01FF00
03FF00
03CF00
03CF80
07CF80
0787C0
0787C0
0F87C0
0F03E0
1F03E0
1F03F0
1FFFF0
3FFFF0
3FFFF8
7FFFF8
7C00F8
7C00FC
F8007C
F8007E
F0003E
ENDCHAR
STARTCHAR $00C4
ENCODING 196
SWIDTH 735 0
DWIDTH 25 0
BBX 23 34 1 0
BITMAP
03C780
03C780
03C780
03C780
000000
000000
000000
000000
000000
007C00
007C00
00FE00
00FE00
01FF00
01FF00
01EF00
03EF80
03EF80
03C780
07C7C0
07C7C0
0F83E0
0F83E0
0F83E0
1F01F0
1FFFF0
1FFFF0
3FFFF8
3FFFF8
7C00FC
7C007C
7C007C
F8003E
F8003E
ENDCHAR
STARTCHAR $00C5
ENCODING 197
SWIDTH 705 0
DWIDTH 24 0
BBX 23 37 1 0
BITMAP
007800
00FC00
01CE00
018600
018600
01CE00
00FC00
007800
000000
000000
000000
000000
007C00
00FC00
00FC00
00FE00
01FE00
01FF00
03FF00
03CF00
03CF80
07CF80
0787C0
0787C0
0F87C0
0F03E0
1F03E0
1F03E0
1FFFF0
3FFFF0
3FFFF8
7FFFF8
7C00F8
7C00FC
F8007C
F8007E
F0003E
ENDCHAR
STARTCHAR $00C6
ENCODING 198
SWIDTH 1000 0
DWIDTH 34 0
BBX 32 25 1 0
BITMAP
0007FFFE
000FFFFE
000FFFFE
001FF000
001FF000
003FF000
003DF000
0079F000
00F9F000
00F1F000
01F1FFFE
01E1FFFE
03E1FFFE
03C1FFFE
07C1F000
07FFF000
0FFFF000
0FFFF000
1FFFF000
1E01F000
3E01F000
3C01FFFF
7C01FFFF
F801FFFF
F801FFFF
ENDCHAR
STARTCHAR $00C7
ENCODING 199
SWIDTH 735 0
DWIDTH 25 0
BBX 21 33 2 -7
BITMAP
03FF00
0FFFC0
1FFFE0
3FFFF0
3E03F0
7C01F0
7801F8
7800F8
F80000
F80000
F80000
F80000
F80000
F80000
F80000
F80000
F800F8
7801F8
7C01F8
7C03F0
3F07F0
1FFFE0
1FFFC0
07FF80
01FC00
006000
007800
007E00
000F00
000700
000700
01FE00
01FC00
ENDCHAR
STARTCHAR $00C8
ENCODING 200
SWIDTH 617 0
DWIDTH 21 0
BBX 17 35 2 0
BITMAP
1E0000
0F0000
070000
078000
038000
01C000
00C000
000000
000000
000000
FFFF00
FFFF00
FFFF00
FFFF00
F80000
F80000
F80000
F80000
F80000
F80000
FFFF00
FFFF00
FFFF00
FFFF00
F80000
F80000
F80000
F80000
F80000
F80000
F80000
FFFF80
FFFF80
FFFF80
FFFF80
ENDCHAR
STARTCHAR $00C9
ENCODING 201
SWIDTH 617 0
DWIDTH 21 0
BBX 17 35 2 0
BITMAP
007800
00F000
00E000
01C000
018000
038000
000000
000000
000000
000000
FFFF00
FFFF00
FFFF00
FFFF00
F80000
F80000
F80000
F80000
F80000
F80000
FFFF00
FFFF00
FFFF00
FFFF00
F80000
F80000
F80000
F80000
F80000
F80000
F80000
FFFF80
FFFF80
FFFF80
FFFF80
ENDCHAR
STARTCHAR $00CA
ENCODING 202
SWIDTH 617 0
DWIDTH 21 0
BBX 17 35 2 0
BITMAP
07E000
07E000
0FF000
0E7000
0E3800
1C3800
181C00
000000
000000
000000
FFFF00
FFFF00
FFFF00
FFFF00
F80000
F80000
F80000
F80000
F80000
F80000
FFFF00
FFFF00
FFFF00
FFFF00
F80000
F80000
F80000
F80000
F80000
F80000
F80000
FFFF80
FFFF80
FFFF80
FFFF80
ENDCHAR
STARTCHAR $00CB
ENCODING 203
SWIDTH 617 0
DWIDTH 21 0
BBX 17 34 2 0
BITMAP
1E3C00
1E3C00
1E3C00
1E3C00
000000
000000
000000
000000
000000
FFFF00
FFFF00
FFFF00
FFFF00
F80000
F80000
F80000
F80000
F80000
F80000
FFFF00
FFFF00
FFFF00
FFFF00
F80000
F80000
F80000
F80000
F80000
F80000
F80000
FFFF80
FFFF80
FFFF80
FFFF80
ENDCHAR
STARTCHAR $00CC
ENCODING 204
SWIDTH 264 0
DWIDTH 9 0
BBX 8 35 -1 0
BITMAP
F0
78
38
3C
1C
0C
06
00
00
00
1F
1F
1F
1F
1F
1F
1F
1F
1F
1F
1F
1F
1F
1F
1F
1F
1F
1F
1F
1F
1F
1F
1F
1F
1F
ENDCHAR
STARTCHAR $00CD
ENCODING 205
SWIDTH 235 0
DWIDTH 8 0
BBX 7 35 2 0
BITMAP
1E
1C
3C
38
70
60
E0
00
00
00
F8
F8
F8
F8
F8
F8
F8
F8
F8
F8
F8
F8
F8
F8
F8
F8
F8
F8
F8
F8
F8
F8
F8
F8
F8
ENDCHAR
STARTCHAR $00CE
ENCODING 206
SWIDTH 264 0
DWIDTH 9 0
BBX 11 35 -1 0
BITMAP
1F00
3F00
3F80
3B80
71C0
61C0
C0E0
0000
0000
0000
1F00
1F00
1F00
1F00
1F00
1F00
1F00
1F00
1F00
1F00
1F00
1F00
1F00
1F00
1F00
1F00
1F00
1F00
1F00
1F00
1F00
1F00
1F00
1F00
1F00
ENDCHAR
STARTCHAR $00CF
ENCODING 207
SWIDTH 323 0
DWIDTH 11 0
BBX 11 34 0 0
BITMAP
F1E0
F1E0
F1E0
F1E0
0000
0000
0000
0000
0000
1F00
1F00
1F00
1F00
1F00
1F00
1F00
1F00
1F00
1F00
1F00
1F00
1F00
1F00
1F00
1F00
1F00
1F00
1F00
1F00
1F00
1F00
1F00
1F00
1F00
ENDCHAR
STARTCHAR $00D0
ENCODING 208
SWIDTH 705 0
DWIDTH 24 0
BBX 23 25 0 0
BITMAP
3FFC00
3FFF80
3FFFC0
3FFFE0
3E07F0
3E01F8
3E00F8
3E007C
3E007C
3E003C
3E003C
FFF03E
FFF03E
FFF03E
3E003C
3E003C
3E007C
3E007C
3E00F8
3E01F8
3E07F0
3FFFE0
3FFFC0
3FFF80
3FFC00
ENDCHAR
STARTCHAR $00D1
ENCODING 209
SWIDTH 735 0
DWIDTH 25 0
BBX 21 34 2 0
BITMAP
000300
01FF00
03FE00
07FC00
060000
000000
000000
000000
000000
FE00F8
FF00F8
FF00F8
FF80F8
FF80F8
FFC0F8
FFC0F8
FBE0F8
FBE0F8
F9E0F8
F9F0F8
F8F0F8
F8F8F8
F878F8
F87CF8
F83CF8
F83EF8
F81EF8
F81FF8
F81FF8
F80FF8
F80FF8
F807F8
F807F8
F803F8
ENDCHAR
STARTCHAR $00D2
ENCODING 210
SWIDTH 794 0
DWIDTH 27 0
BBX 23 36 2 0
BITMAP
07C000
03C000
01E000
00E000
00F000
007000
003800
000000
000000
000000
000000
03FF80
07FFC0
1FFFF0
1FFFF0
3F01F8
7E00FC
7C007C
78003C
F8003E
F8003E
F8003E
F8003E
F8003E
F8003E
F8003E
F8003E
F8003E
7C007C
7C007C
3E00F8
3F83F8
1FFFF0
0FFFE0
07FFC0
00FE00
ENDCHAR
STARTCHAR $00D3
ENCODING 211
SWIDTH 794 0
DWIDTH 27 0
BBX 23 36 2 0
BITMAP
0007C0
000780
000F00
000E00
001C00
001800
003000
000000
000000
000000
000000
03FF80
07FFC0
1FFFF0
1FFFF0
3F01F8
7E00FC
7C007C
78003C
F8003E
F8003E
F8003E
F8003E
F8003E
F8003E
F8003E
F8003E
F8003E
7C007C
7C007C
3E00F8
3F83F8
1FFFF0
0FFFE0
07FFC0
00FE00
ENDCHAR
STARTCHAR $00D4
ENCODING 212
SWIDTH 794 0
DWIDTH 27 0
BBX 23 36 2 0
BITMAP
007C00
00FE00
00FE00
01EF00
01C700
038380
030180
000000
000000
000000
000000
03FF80
07FFC0
1FFFF0
1FFFF0
3F01F8
7E00FC
7C007C
78003C
F8003E
F8003E
F8003E
F8003E
F8003E
F8003E
F8003E
F8003E
F8003E
7C007C
7C007C
3E00F8
3F83F8
1FFFF0
0FFFE0
07FFC0
00FE00
ENDCHAR
STARTCHAR $00D5
ENCODING 213
SWIDTH 794 0
DWIDTH 27 0
BBX 23 34 2 0
BITMAP
00F180
01FF80
03FF00
031E00
030000
000000
000000
000000
000000
03FF80
07FFC0
1FFFF0
1FFFF0
3F01F8
7E00FC
7C007C
78003C
F8003E
F8003E
F8003E
F8003E
F8003E
F8003E
F8003E
F8003E
F8003E
7C007C
7C007C
3E00F8
3F83F8
1FFFF0
0FFFE0
07FFC0
00FE00
ENDCHAR
STARTCHAR $00D6
ENCODING 214
SWIDTH 794 0
DWIDTH 27 0
BBX 23 34 2 0
BITMAP
03C780
03C780
03C780
03C780
000000
000000
000000
000000
000000
03FF80
07FFC0
1FFFF0
1FFFF0
3F01F8
7E00FC
7C007C
78003C
F8003E
F8003E
F8003E
F8003E
F8003E
F8003E
F8003E
F8003E
F8003E
7C007C
7C007C
3E00F8
3F83F8
1FFFF0
0FFFE0
07FFC0
00FE00
ENDCHAR
STARTCHAR $00D7
ENCODING 215
SWIDTH 1000 0
DWIDTH 34 0
BBX 18 19 8 1
BITMAP
400000
E000C0
700180
380300
1C0600
0E0C00
061800
033000
01E000
00C000
01E000
033000
061800
0C0C00
180600
300300
700180
E001C0
400080
ENDCHAR
STARTCHAR $00D8
ENCODING 216
SWIDTH 794 0
DWIDTH 27 0
BBX 25 28 1 -1
BITMAP
00000100
00000380
01FFC380
03FFF700
0FFFFE00
0FFFFC00
1F80FC00
3F007E00
3E00FE00
3C01FE00
7C03DF00
7C079F00
7C0F1F00
7C1E1F00
7C3C1F00
7C781F00
7CF01F00
7DE01F00
7FC01F00
3F803E00
3F003E00
3F007C00
1FC1FC00
3FFFF800
7FFFF000
F3FFE000
E07F0000
40000000
ENDCHAR
STARTCHAR $00D9
ENCODING 217
SWIDTH 735 0
DWIDTH 25 0
BBX 21 36 2 0
BITMAP
0F0000
078000
03C000
03C000
01E000
00E000
007000
000000
000000
000000
000000
F800F8
F800F8
F800F8
F800F8
F800F8
F800F8
F800F8
F800F8
F800F8
F800F8
F800F8
F800F8
F800F8
F800F8
F800F8
F800F8
F800F0
F800F0
7801F0
7C03F0
7F07E0
3FFFC0
1FFF80
0FFF00
03FC00
ENDCHAR
STARTCHAR $00DA
ENCODING 218
SWIDTH 735 0
DWIDTH 25 0
BBX 21 36 2 0
BITMAP
000F80
000F00
001E00
003C00
003800
007000
006000
000000
000000
000000
000000
F800F8
F800F8
F800F8
F800F8
F800F8
F800F8
F800F8
F800F8
F800F8
F800F8
F800F8
F800F8
F800F8
F800F8
F800F8
F800F8
F800F0
F800F0
7801F0
7C03F0
7F07E0
3FFFC0
1FFF80
0FFF00
03FC00
ENDCHAR
STARTCHAR $00DB
ENCODING 219
SWIDTH 735 0
DWIDTH 25 0
BBX 21 36 2 0
BITMAP
00F800
01F800
01FC00
03DC00
078E00
070E00
0E0700
000000
000000
000000
000000
F800F8
F800F8
F800F8
F800F8
F800F8
F800F8
F800F8
F800F8
F800F8
F800F8
F800F8
F800F8
F800F8
F800F8
F800F8
F800F8
F800F0
F800F0
7801F0
7C03F0
7F07E0
3FFFC0
1FFF80
0FFF00
03FC00
ENDCHAR
STARTCHAR $00DC
ENCODING 220
SWIDTH 735 0
DWIDTH 25 0
BBX 21 34 2 0
BITMAP
078F00
078F00
078F00
078F00
000000
000000
000000
000000
000000
F800F8
F800F8
F800F8
F800F8
F800F8
F800F8
F800F8
F800F8
F800F8
F800F8
F800F8
F800F8
F800F8
F800F8
F800F8
F800F8
F800F0
F800F0
7C01F0
7C03F0
7F07E0
3FFFC0
1FFF80
0FFF00
03FC00
ENDCHAR
STARTCHAR $00DD
ENCODING 221
SWIDTH 647 0
DWIDTH 22 0
BBX 21 35 1 0
BITMAP
001E00
001E00
001C00
003800
003000
007000
000000
000000
000000
000000
FC01F8
FC01F0
7E03E0
7E03E0
3F07C0
1F07C0
1F8F80
0F8F80
0FDF00
07DF00
07FE00
03FE00
03FC00
01F800
01F800
00F000
00F800
00F800
00F800
00F800
00F800
00F800
00F800
00F800
00F800
ENDCHAR
STARTCHAR $00DE
ENCODING 222
SWIDTH 647 0
DWIDTH 22 0
BBX 18 25 2 0
BITMAP
F80000
F80000
F80000
F80000
FFF000
FFFE00
FFFF00
FFFF80
F80F80
F807C0
F807C0
F807C0
F807C0
F807C0
F80FC0
FFFF80
FFFF00
FFFE00
FFF000
F80000
F80000
F80000
F80000
F80000
F80000
ENDCHAR
STARTCHAR $00DF
ENCODING 223
SWIDTH 558 0
DWIDTH 19 0
BBX 18 25 1 1
BITMAP
1FF000
3FFC00
7FFC00
F83E00
F83E00
F83E00
F83E00
F87C00
F8F800
F8F000
F9F000
FBE000
FBE000
F9F800
F9FC00
F87F00
F83F80
F80F80
F80780
F807C0
FBC7C0
FBC780
F9FF80
F9FF00
F87E00
ENDCHAR
STARTCHAR $00E0
ENCODING 224
SWIDTH 558 0
DWIDTH 19 0
BBX 15 28 2 0
BITMAP
3C00
1E00
0E00
0700
0700
0380
0180
0000
0000
0000
07E0
3FF8
7FFC
7C3E
783E
003E
0FFE
3FFE
7FFE
7C3E
F83E
F83E
F83E
F83E
FC7E
7FFE
3FDE
1F1E
ENDCHAR
STARTCHAR $00E1
ENCODING 225
SWIDTH 558 0
DWIDTH 19 0
BBX 15 28 2 0
BITMAP
0078
00F0
00F0
01E0
01C0
0180
0300
0000
0000
0000
07E0
3FF8
7FFC
7C3E
783E
003E
0FFE
3FFE
7FFE
7C3E
F83E
F83E
F83E
F83E
FC7E
7FFE
3FDE
1F1E
ENDCHAR
STARTCHAR $00E2
ENCODING 226
SWIDTH 558 0
DWIDTH 19 0
BBX 15 28 2 0
BITMAP
07C0
07E0
0FE0
0EF0
1C70
1838
3818
0000
0000
0000
07E0
3FF8
7FFC
7C3E
783E
003E
0FFE
3FFE
7FFE
7C3E
F83E
F83E
F83E
F83E
FC7E
7FFE
3FDE
1F1E
ENDCHAR
STARTCHAR $00E3
ENCODING 227
SWIDTH 558 0
DWIDTH 19 0
BBX 15 26 2 0
BITMAP
0018
0FF8
1FF0
1FE0
3000
0000
0000
0000
07E0
3FF8
7FFC
7C3E
783E
003E
0FFE
3FFE
7FFE
7C3E
F83E
F83E
F83E
F83E
FC7E
7FFE
3FDE
1F1E
ENDCHAR
STARTCHAR $00E4
ENCODING 228
SWIDTH 558 0
DWIDTH 19 0
BBX 15 27 2 0
BITMAP
3C78
3C78
3C78
3C78
0000
0000
0000
0000
0000
0FE0
3FF8
7FFC
7C3E
783E
003E
0FFE
3FFE
7FFE
7C3E
F83E
F83E
F83E
F83E
FC7E
7FFE
3FDE
1F1E
ENDCHAR
STARTCHAR $00E5
ENCODING 229
SWIDTH 558 0
DWIDTH 19 0
BBX 15 30 2 0
BITMAP
03C0
07E0
0E70
0C30
0C30
0E70
07E0
03C0
0000
0000
0000
0000
07E0
1FF8
3FFC
7C3E
783E
003E
0FFE
3FFE
7FFE
7C3E
F83E
F83E
F83E
F83E
FC7E
7FFE
3FDE
1F1E
ENDCHAR
STARTCHAR $00E6
ENCODING 230
SWIDTH 911 0
DWIDTH 31 0
BBX 27 18 2 0
BITMAP
07E07C00
1FF9FF00
7FFDFF80
7C3F87C0
781F03C0
001F03E0
07FFFFE0
3FFFFFE0
7FFFFFE0
7C1F0000
F81F0000
F81F0000
F81F83E0
F81F83C0
FC3BC7C0
7FF1FFC0
3FE0FF80
0F807E00
ENDCHAR
STARTCHAR $00E7
ENCODING 231
SWIDTH 529 0
DWIDTH 18 0
BBX 15 26 2 -8
BITMAP
07E0
1FF8
3FFC
7C7C
783C
F83E
F83E
F800
F800
F800
F800
F83E
F83E
783C
7C7C
3FFC
1FF8
0FE0
0300
0380
03E0
00F0
0070
0070
0FE0
0FC0
ENDCHAR
STARTCHAR $00E8
ENCODING 232
SWIDTH 558 0
DWIDTH 19 0
BBX 15 28 2 0
BITMAP
3E00
1E00
0F00
0700
0780
0380
01C0
0000
0000
0000
07E0
1FF8
3FFC
7C3C
783E
F81E
F81E
FFFE
FFFE
FFFE
F800
F800
F81E
783E
7C3E
3FFC
1FF8
07E0
ENDCHAR
STARTCHAR $00E9
ENCODING 233
SWIDTH 558 0
DWIDTH 19 0
BBX 15 28 2 0
BITMAP
0078
0070
00F0
00E0
01C0
0180
0300
0000
0000
0000
07E0
1FF8
3FFC
7C3C
783E
F81E
F81E
FFFE
FFFE
FFFE
F800
F800
F81E
783E
7C3E
3FFC
1FF8
07E0
ENDCHAR
STARTCHAR $00EA
ENCODING 234
SWIDTH 558 0
DWIDTH 19 0
BBX 15 28 2 0
BITMAP
07E0
07E0
0FE0
0E70
1C70
1C38
3818
0000
0000
0000
07E0
1FF8
3FFC
7C3C
783E
F81E
F81E
FFFE
FFFE
FFFE
F800
F800
F81E
783E
7C3E
3FFC
1FF8
07E0
ENDCHAR
STARTCHAR $00EB
ENCODING 235
SWIDTH 558 0
DWIDTH 19 0
BBX 15 27 2 0
BITMAP
3C78
3C78
3C78
3C78
0000
0000
0000
0000
0000
07E0
1FF8
3FFC
7C7C
783E
F83E
F83E
FFFE
FFFE
FFFE
F800
F800
F83E
783E
7C7E
3FFC
1FF8
07E0
ENDCHAR
STARTCHAR $00EC
ENCODING 236
SWIDTH 264 0
DWIDTH 9 0
BBX 8 28 -1 0
BITMAP
F0
78
78
3C
1C
0E
06
00
00
00
1F
1F
1F
1F
1F
1F
1F
1F
1F
1F
1F
1F
1F
1F
1F
1F
1F
1F
ENDCHAR
STARTCHAR $00ED
ENCODING 237
SWIDTH 235 0
DWIDTH 8 0
BBX 7 28 2 0
BITMAP
1E
3C
38
78
70
E0
C0
00
00
00
F8
F8
F8
F8
F8
F8
F8
F8
F8
F8
F8
F8
F8
F8
F8
F8
F8
F8
ENDCHAR
STARTCHAR $00EE
ENCODING 238
SWIDTH 264 0
DWIDTH 9 0
BBX 10 28 -1 0
BITMAP
1F00
3F00
3F80
7B80
73C0
61C0
E0C0
0000
0000
0000
1F00
1F00
1F00
1F00
1F00
1F00
1F00
1F00
1F00
1F00
1F00
1F00
1F00
1F00
1F00
1F00
1F00
1F00
ENDCHAR
STARTCHAR $00EF
ENCODING 239
SWIDTH 264 0
DWIDTH 9 0
BBX 11 26 -1 0
BITMAP
F1E0
F1E0
F1E0
F1E0
0000
0000
0000
0000
1F00
1F00
1F00
1F00
1F00
1F00
1F00
1F00
1F00
1F00
1F00
1F00
1F00
1F00
1F00
1F00
1F00
1F00
ENDCHAR
STARTCHAR $00F0
ENCODING 240
SWIDTH 617 0
DWIDTH 21 0
BBX 18 26 2 0
BITMAP
000100
0F8700
03FE00
01F800
03F800
0FFC00
3C3C00
101E00
07FF00
1FFF00
3FFF00
7E1F80
7C0F80
F80F80
F80780
F807C0
F807C0
F807C0
F807C0
F80780
780F80
7C0F80
7E1F00
3FFF00
1FFC00
03F000
ENDCHAR
STARTCHAR $00F1
ENCODING 241
SWIDTH 588 0
DWIDTH 20 0
BBX 16 26 2 0
BITMAP
0018
0FF8
1FF8
1FF0
3000
0000
0000
0000
F9F8
FBFC
FFFE
FC3F
FC1F
F81F
F81F
F81F
F81F
F81F
F81F
F81F
F81F
F81F
F81F
F81F
F81F
F81F
ENDCHAR
STARTCHAR $00F2
ENCODING 242
SWIDTH 617 0
DWIDTH 21 0
BBX 18 28 2 0
BITMAP
1F0000
0F0000
078000
038000
03C000
01C000
00E000
000000
000000
000000
03F000
0FFC00
3FFE00
3E1F00
7C0F80
780F80
F80780
F80780
F807C0
F807C0
F807C0
F80780
780F80
7C0F80
3E1F00
3FFE00
0FFC00
03F000
ENDCHAR
STARTCHAR $00F3
ENCODING 243
SWIDTH 617 0
DWIDTH 21 0
BBX 18 28 2 0
BITMAP
003C00
003800
007800
007000
00E000
00C000
018000
000000
000000
000000
03F000
0FFC00
3FFE00
3E1F00
7C0F80
780F80
F80780
F80780
F807C0
F807C0
F807C0
F80780
780F80
7C0F80
3E1F00
3FFE00
0FFC00
03F000
ENDCHAR
STARTCHAR $00F4
ENCODING 244
SWIDTH 617 0
DWIDTH 21 0
BBX 18 28 2 0
BITMAP
03E000
03F000
07F000
073800
0E3800
0E1C00
1C0C00
000000
000000
000000
03F000
0FFC00
3FFE00
3E1F00
7C0F80
780F80
F80780
F80780
F807C0
F807C0
F807C0
F80780
780F80
7C0F80
3E1F00
3FFE00
0FFC00
03F000
ENDCHAR
STARTCHAR $00F5
ENCODING 245
SWIDTH 617 0
DWIDTH 21 0
BBX 18 27 2 0
BITMAP
000400
000C00
07FC00
0FF800
0FF000
180000
000000
000000
000000
03F000
0FFC00
3FFE00
3E1F00
7C0F80
780F80
F80780
F80780
F807C0
F807C0
F807C0
F80780
780F80
7C0F80
3E1F00
3FFE00
0FFC00
03F000
ENDCHAR
STARTCHAR $00F6
ENCODING 246
SWIDTH 617 0
DWIDTH 21 0
BBX 18 27 2 0
BITMAP
1E3C00
1E3C00
1E3C00
1E3C00
000000
000000
000000
000000
000000
03F000
0FFC00
3FFE00
3E1F00
7C0F80
780F80
F80780
F80780
F807C0
F807C0
F807C0
F80780
780F80
7C0F80
3E1F00
3FFE00
0FFC00
03F000
ENDCHAR
STARTCHAR $00F7
ENCODING 247
SWIDTH 1000 0
DWIDTH 34 0
BBX 20 15 7 3
BITMAP
007000
00F800
00F800
007000
000000
000000
000000
FFFFF0
FFFFF0
000000
000000
007000
00F800
00F800
007000
ENDCHAR
STARTCHAR $00F8
ENCODING 248
SWIDTH 617 0
DWIDTH 21 0
BBX 18 23 2 -2
BITMAP
000100
000180
000380
03F700
0FFF00
3FFE00
3E1F00
7C3F80
783780
F87780
F8E780
F9C7C0
FB87C0
FB87C0
FF0780
7E0F80
7C0F80
3E1F00
3FFE00
7FFC00
E3F000
E00000
C00000
ENDCHAR
STARTCHAR $00F9
ENCODING 249
SWIDTH 588 0
DWIDTH 20 0
BBX 16 28 2 0
BITMAP
3E00
1E00
0F00
0700
0380
0380
01C0
0000
0000
0000
F81F
F81F
F81F
F81F
F81F
F81F
F81F
F81F
F81F
F81F
F81F
F81F
F81F
F81F
FC3F
7FFF
3FDF
1F9F
ENDCHAR
STARTCHAR $00FA
ENCODING 250
SWIDTH 588 0
DWIDTH 20 0
BBX 16 28 2 0
BITMAP
0078
00F0
00F0
00E0
01C0
0180
0300
0000
0000
0000
F81F
F81F
F81F
F81F
F81F
F81F
F81F
F81F
F81F
F81F
F81F
F81F
F81F
F81F
FC3F
7FFF
3FDF
1F9F
ENDCHAR
STARTCHAR $00FB
ENCODING 251
SWIDTH 588 0
DWIDTH 20 0
BBX 16 28 2 0
BITMAP
07E0
07E0
0FF0
0E70
1C38
1C38
381C
0000
0000
0000
F81F
F81F
F81F
F81F
F81F
F81F
F81F
F81F
F81F
F81F
F81F
F81F
F81F
F81F
FC3F
7FFF
3FDF
1F9F
ENDCHAR
STARTCHAR $00FC
ENCODING 252
SWIDTH 588 0
DWIDTH 20 0
BBX 16 27 2 0
BITMAP
3C78
3C78
3C78
3C78
0000
0000
0000
0000
0000
F81F
F81F
F81F
F81F
F81F
F81F
F81F
F81F
F81F
F81F
F81F
F81F
F81F
F81F
FC3F
7FFF
3FDF
1F9F
ENDCHAR
STARTCHAR $00FD
ENCODING 253
SWIDTH 558 0
DWIDTH 19 0
BBX 17 35 1 -7
BITMAP
001E00
003C00
003800
007800
007000
00E000
00C000
000000
000000
000000
F80F80
F80F80
FC0F80
7C1F00
7E1F00
3E1F00
3E3E00
3F3E00
1F3C00
1F7C00
0FFC00
0FF800
0FF800
07F800
07F000
03F000
03F000
03E000
03E000
03C000
67C000
FFC000
FFC000
7F8000
3E0000
ENDCHAR
STARTCHAR $00FE
ENCODING 254
SWIDTH 617 0
DWIDTH 21 0
BBX 17 32 2 -7
BITMAP
F80000
F80000
F80000
F80000
F80000
F80000
F80000
F9F000
FFFC00
FFFE00
FE3F00
FC1F00
F80F80
F80F80
F80F80
F80F80
F80F80
F80F80
F80F80
F80F80
FC1F00
FE3F00
FFFE00
FFFC00
FBF000
F80000
F80000
F80000
F80000
F80000
F80000
F80000
ENDCHAR
STARTCHAR $00FF
ENCODING 255
SWIDTH 558 0
DWIDTH 19 0
BBX 17 33 1 -7
BITMAP
1E3C00
1E3C00
1E3C00
1E3C00
000000
000000
000000
000000
F80F80
F80F80
FC0F80
7C1F00
7C1F00
7E1F00
3E3E00
3F3E00
1F3E00
1F7C00
1FFC00
0FF800
0FF800
07F800
07F000
07F000
03F000
03E000
03E000
03E000
07C000
07C000
07C000
0F8000
0F8000
ENDCHAR
STARTCHAR $0131
ENCODING 305
SWIDTH 264 0
DWIDTH 9 0
BBX 5 18 2 0
BITMAP
F8
F8
F8
F8
F8
F8
F8
F8
F8
F8
F8
F8
F8
F8
F8
F8
F8
F8
ENDCHAR
STARTCHAR $0141
ENCODING 321
SWIDTH 647 0
DWIDTH 22 0
BBX 19 25 1 0
BITMAP
1F0000
1F0000
1F0000
1F1000
1F3000
1F7000
1FF000
1FF000
1FE000
1F8000
1F0000
1F0000
3F0000
7F0000
FF0000
FF0000
FF0000
DF0000
9F0000
1F0000
1F0000
1FFFE0
1FFFE0
1FFFE0
1FFFE0
ENDCHAR
STARTCHAR $0142
ENCODING 322
SWIDTH 352 0
DWIDTH 12 0
BBX 11 25 1 0
BITMAP
1F00
1F00
1F00
1F00
1F00
1F20
1F60
1FE0
1FE0
1FC0
1F80
1F00
3F00
7F00
FF00
FF00
DF00
9F00
1F00
1F00
1F00
1F00
1F00
1F00
1F00
ENDCHAR
STARTCHAR $0152
ENCODING 338
SWIDTH 1029 0
DWIDTH 35 0
BBX 31 26 2 0
BITMAP
00100000
03FFFFFE
07FFFFFE
1FFFFFFE
1FFFFFFE
3F03E000
7C03E000
7C03E000
7803E000
F803E000
F803FFFC
F803FFFC
F803FFFC
F803FFFC
F803E000
F803E000
F803E000
F803E000
7C03E000
7C03E000
3E03E000
3F83E000
1FFFFFFE
0FFFFFFE
07FFFFFE
00FFFFFE
ENDCHAR
STARTCHAR $0153
ENCODING 339
SWIDTH 911 0
DWIDTH 31 0
BBX 28 18 2 0
BITMAP
03F07E00
0FF9FF80
3FFFFFC0
3E3FE3E0
7C1FC1E0
780F81E0
F80F81F0
F80FFFF0
F80FFFF0
F80FFFF0
F80F8000
F80F8000
780F81F0
7C1FC1F0
3E3FE3E0
3FFFFFE0
0FF9FFC0
03F07F00
ENDCHAR
STARTCHAR $0160
ENCODING 352
SWIDTH 676 0
DWIDTH 23 0
BBX 20 36 2 0
BITMAP
0E0600
070E00
079C00
039C00
03FC00
01F800
01F800
000000
000000
000000
000000
07FE00
0FFF80
1FFF80
3FFFC0
7E07C0
7C03E0
7C0000
7C0000
7C0000
7F0000
3FF000
1FFE00
07FF80
01FFC0
001FE0
0003E0
F801F0
F801F0
F801F0
F803E0
7E07E0
3FFFC0
3FFF80
0FFF00
03F800
ENDCHAR
STARTCHAR $0161
ENCODING 353
SWIDTH 529 0
DWIDTH 18 0
BBX 15 28 2 0
BITMAP
3830
1870
1CE0
0EE0
0FC0
0FC0
07C0
0000
0000
0000
0FE0
3FF8
7FF8
7C7C
F87C
F800
7E00
7FC0
3FF8
0FFC
01FC
007E
F83E
F83E
F87C
7FFC
3FF8
0FC0
ENDCHAR
STARTCHAR $0178
ENCODING 376
SWIDTH 676 0
DWIDTH 23 0
BBX 21 34 1 0
BITMAP
078F00
078F00
078F00
078F00
000000
000000
000000
000000
000000
FC01F8
FC01F0
7E03F0
3E03E0
3F07E0
1F07C0
1F8FC0
0F8F80
0FDF00
07DF00
07FE00
03FE00
03FC00
01FC00
01F800
00F000
00F800
00F800
00F800
00F800
00F800
00F800
00F800
00F800
00F800
ENDCHAR
STARTCHAR $017D
ENCODING 381
SWIDTH 647 0
DWIDTH 22 0
BBX 18 35 2 0
BITMAP
0E0C00
061C00
073800
03F800
03F000
01F000
000000
000000
000000
000000
7FFFC0
7FFFC0
7FFFC0
7FFFC0
000FC0
001F80
003F00
003F00
007E00
00FC00
01FC00
01F800
03F000
07E000
07E000
0FC000
1F8000
3F8000
3F0000
7E0000
FC0000
FFFFC0
FFFFC0
FFFFC0
FFFFC0
ENDCHAR
STARTCHAR $017E
ENCODING 382
SWIDTH 529 0
DWIDTH 18 0
BBX 14 28 2 0
BITMAP
3038
3830
1C70
1CE0
0FE0
0FC0
07C0
0000
0000
0000
FFFC
FFFC
FFFC
007C
00F8
01F8
03F0
07E0
07C0
0F80
1F80
3F00
7E00
7C00
F800
FFFC
FFFC
FFFC
ENDCHAR
STARTCHAR $0192
ENCODING 402
SWIDTH 529 0
DWIDTH 18 0
BBX 21 32 -2 -7
BITMAP
0001F8
0007F8
000FF0
000F00
001E00
001E00
003E00
01FFC0
03FFC0
03FFC0
007800
007800
007800
00F800
00F000
00F000
00F000
01F000
01E000
01E000
01E000
03C000
03C000
03C000
03C000
078000
078000
0F8000
9F0000
FE0000
FE0000
F80000
ENDCHAR
STARTCHAR $02C6
ENCODING 710
SWIDTH 323 0
DWIDTH 11 0
BBX 11 7 0 21
BITMAP
1F00
1F00
3F80
3B80
71C0
71C0
E0E0
ENDCHAR
STARTCHAR $02C7
ENCODING 711
SWIDTH 323 0
DWIDTH 11 0
BBX 11 7 0 21
BITMAP
C0E0
E0C0
71C0
7B80
3F80
3F80
1F00
ENDCHAR
STARTCHAR $02D8
ENCODING 728
SWIDTH 323 0
DWIDTH 11 0
BBX 11 6 0 21
BITMAP
C060
C060
F1E0
7FC0
3F80
1F00
ENDCHAR
STARTCHAR $02D9
ENCODING 729
SWIDTH 147 0
DWIDTH 5 0
BBX 5 5 0 20
BITMAP
F8
F8
F8
F8
F8
ENDCHAR
STARTCHAR $02DA
ENCODING 730
SWIDTH 235 0
DWIDTH 8 0
BBX 8 8 0 21
BITMAP
3C
7E
E7
C3
C3
E7
7E
3C
ENDCHAR
STARTCHAR $02DB
ENCODING 731
SWIDTH 205 0
DWIDTH 7 0
BBX 6 8 0 -8
BITMAP
30
60
60
E0
E0
FC
FC
7C
ENDCHAR
STARTCHAR $02DC
ENCODING 732
SWIDTH 323 0
DWIDTH 11 0
BBX 11 5 0 20
BITMAP
3860
7FC0
FFC0
C000
C000
ENDCHAR
STARTCHAR $02DD
ENCODING 733
SWIDTH 323 0
DWIDTH 11 0
BBX 11 7 0 21
BITMAP
39E0
79C0
71C0
7380
6300
E300
C200
ENDCHAR
STARTCHAR $0394
ENCODING 916
SWIDTH 647 0
DWIDTH 22 0
BBX 21 24 0 1
BITMAP
001000
001800
003800
003800
007C00
007C00
00FE00
009E00
019E00
010F00
030F00
030780
020780
060780
0403C0
0C03C0
0801E0
1801E0
1001E0
3000F0
2000F0
600078
7FFFF8
FFFFF8
ENDCHAR
STARTCHAR $03A9
ENCODING 937
SWIDTH 794 0
DWIDTH 27 0
BBX 24 25 2 0
BITMAP
00FF00
0781C0
0E00F0
1C0078
3C003C
78003C
78001E
F8001E
F8001E
F8001F
F8001F
F8001F
F8001F
F8001E
78003E
78003E
3C003C
1E0078
0F00F0
0783E0
00C301
80C301
FFC3FF
FFC3FF
FFC3FF
ENDCHAR
STARTCHAR $03BC
ENCODING 956
SWIDTH 647 0
DWIDTH 22 0
BBX 20 25 2 -7
BITMAP
F81F00
F81F00
F81F00
F81F00
F81F00
F81F00
F81F00
F81F00
F81F00
F81F00
F81F00
F81F00
F81F00
F81F00
FC3F90
FFFFF0
FFEFF0
FBC7E0
F80000
F80000
F80000
F80000
F80000
F80000
F80000
ENDCHAR
STARTCHAR $03C0
ENCODING 960
SWIDTH 558 0
DWIDTH 19 0
BBX 19 18 0 0
BITMAP
1FFFE0
3FFFE0
7FFFE0
430C00
831800
071800
061800
061800
061800
061800
061800
061800
0E1820
1E1C40
1C1C40
3C0FC0
3C0F80
180700
ENDCHAR
STARTCHAR $2013
ENCODING 8211
SWIDTH 500 0
DWIDTH 17 0
BBX 17 4 0 7
BITMAP
FFFF80
FFFF80
FFFF80
FFFF80
ENDCHAR
STARTCHAR $2014
ENCODING 8212
SWIDTH 1000 0
DWIDTH 34 0
BBX 34 4 0 7
BITMAP
FFFFFFFFC0
FFFFFFFFC0
FFFFFFFFC0
FFFFFFFFC0
ENDCHAR
STARTCHAR $2018
ENCODING 8216
SWIDTH 264 0
DWIDTH 9 0
BBX 7 9 1 16
BITMAP
0E
1E
1E
1C
3C
3C
78
78
F8
ENDCHAR
STARTCHAR $2019
ENCODING 8217
SWIDTH 264 0
DWIDTH 9 0
BBX 7 9 1 16
BITMAP
1E
3E
3C
3C
78
78
70
70
F0
ENDCHAR
STARTCHAR $201A
ENCODING 8218
SWIDTH 264 0
DWIDTH 9 0
BBX 7 9 1 -5
BITMAP
1E
3E
3C
3C
78
78
70
70
F0
ENDCHAR
STARTCHAR $201C
ENCODING 8220
SWIDTH 470 0
DWIDTH 16 0
BBX 14 9 1 16
BITMAP
0E1C
1E3C
1E38
1C78
3C78
3C78
78F0
78F0
F9F0
ENDCHAR
STARTCHAR $201D
ENCODING 8221
SWIDTH 470 0
DWIDTH 16 0
BBX 14 9 1 16
BITMAP
1E3C
3E7C
3C78
3C78
78F0
78F0
70E0
71E0
F1C0
ENDCHAR
STARTCHAR $201E
ENCODING 8222
SWIDTH 470 0
DWIDTH 16 0
BBX 14 9 1 -5
BITMAP
1E3C
3E7C
3C78
3C78
78F0
78F0
70E0
71E0
F1C0
ENDCHAR
STARTCHAR $2020
ENCODING 8224
SWIDTH 529 0
DWIDTH 18 0
BBX 16 31 1 -6
BITMAP
07C0
07C0
07C0
07C0
07C0
07C0
07C0
FFFF
FFFF
FFFF
07C0
07C0
07C0
07C0
07C0
07C0
07C0
07C0
07C0
07C0
07C0
07C0
07C0
07C0
07C0
07C0
07C0
07C0
07C0
07C0
07C0
ENDCHAR
STARTCHAR $2021
ENCODING 8225
SWIDTH 558 0
DWIDTH 19 0
BBX 15 31 2 -6
BITMAP
07C0
07C0
07C0
07C0
07C0
07C0
07C0
FFFE
FFFE
FFFE
07C0
07C0
07C0
07C0
07C0
07C0
07C0
07C0
07C0
07C0
FFFE
FFFE
FFFE
07C0
07C0
07C0
07C0
07C0
07C0
07C0
07C0
ENDCHAR
STARTCHAR $2022
ENCODING 8226
SWIDTH 294 0
DWIDTH 10 0
BBX 8 8 1 8
BITMAP
3C
7E
FF
FF
FF
FF
7E
3C
ENDCHAR
STARTCHAR $2026
ENCODING 8230
SWIDTH 1000 0
DWIDTH 34 0
BBX 31 5 2 0
BITMAP
F807C03E
F807C03E
F807C03E
F807C03E
F807C03E
ENDCHAR
STARTCHAR $2030
ENCODING 8240
SWIDTH 1441 0
DWIDTH 49 0
BBX 47 26 1 0
BITMAP
000003800000
0FC007000000
3FF007000000
7CF80E000000
78780E000000
F03C1C000000
F03C18000000
F03C38000000
F03C70000000
F03C70000000
7878E0000000
7878C0000000
3FF1C7F80FF0
0FC38FFC1FF8
00039F3E3E7C
00071E1E3C3C
00063C0F781E
000E3C0F781E
001C3C0F781E
001C3C0F781E
00383C0F781E
00383C0F781E
00701E1E3C3C
00600F3C1E78
00E00FFC1FF8
01C003F007E0
ENDCHAR
STARTCHAR $2039
ENCODING 8249
SWIDTH 382 0
DWIDTH 13 0
BBX 8 14 2 2
BITMAP
0F
1F
1E
3E
3C
7C
F8
FC
7C
3C
3E
1E
1F
0F
ENDCHAR
STARTCHAR $203A
ENCODING 8250
SWIDTH 382 0
DWIDTH 13 0
BBX 8 14 2 2
BITMAP
F8
78
7C
3E
3E
1F
1F
1F
1F
3E
3E
7C
78
F8
ENDCHAR
STARTCHAR $2044
ENCODING 8260
SWIDTH 588 0
DWIDTH 20 0
BBX 18 27 1 0
BITMAP
0001C0
000380
000380
000700
000E00
000E00
001C00
001C00
003800
003800
007000
007000
00E000
01C000
01C000
038000
038000
070000
070000
0E0000
1C0000
1C0000
380000
380000
700000
700000
E00000
ENDCHAR
STARTCHAR $2122
ENCODING 8482
SWIDTH 647 0
DWIDTH 22 0
BBX 19 9 1 15
BITMAP
FF70E0
1879E0
1879E0
1879E0
186960
186F60
186F60
186660
186660
ENDCHAR
STARTCHAR $2202
ENCODING 8706
SWIDTH 529 0
DWIDTH 18 0
BBX 16 28 1 -1
BITMAP
0600
7FC0
3070
0018
0018
000C
000E
0006
0006
0006
0007
0007
0007
0FC7
1E37
381F
700F
700E
F00E
E00E
E00E
E01C
E01C
E01C
6038
7070
38E0
0FC0
ENDCHAR
STARTCHAR $220F
ENCODING 8719
SWIDTH 852 0
DWIDTH 29 0
BBX 28 31 1 -4
BITMAP
FFFFFFF0
3FFFFFC0
1E000F80
1E000F80
1E000F00
1E000F00
1E000F00
1E000F00
1E000F00
1E000F00
1E000F00
1E000F00
1E000F00
1E000F00
1E000F00
1E000F00
1E000F00
1E000F00
1E000F00
1E000F00
1E000F00
1E000F00
1E000F00
1E000F00
1E000F00
1E000F00
1E000F00
1E000F00
1F000F80
3F001F80
FFE07FF0
ENDCHAR
STARTCHAR $2211
ENCODING 8721
SWIDTH 735 0
DWIDTH 25 0
BBX 23 30 1 -3
BITMAP
FFFFF8
7FFFF8
7C0038
3E0018
1F0008
0F0008
0F8000
07C000
03E000
01E000
01F000
00F800
007C00
003C00
003E00
001C00
000C00
001800
003000
006000
00C000
018000
030000
060002
0E0002
0C0006
1FFFFE
3FFFFC
7FFFFC
FFFFFC
ENDCHAR
STARTCHAR $2212
ENCODING 8722
SWIDTH 1000 0
DWIDTH 34 0
BBX 20 2 7 9
BITMAP
FFFFF0
FFFFF0
ENDCHAR
STARTCHAR $221A
ENCODING 8730
SWIDTH 588 0
DWIDTH 20 0
BBX 19 24 1 0
BITMAP
0000E0
000180
000100
000100
000100
000300
000200
100200
700600
F80600
180400
1C0400
0C0C00
0E0800
060800
070800
031800
039000
01D000
01D000
00F000
00E000
006000
002000
ENDCHAR
STARTCHAR $221E
ENCODING 8734
SWIDTH 1000 0
DWIDTH 34 0
BBX 23 10 6 5
BITMAP
1E00F0
7F83F8
61C70C
C06C06
C03806
C03806
C06C06
61C70C
3F83F8
0C0060
ENDCHAR
STARTCHAR $222B
ENCODING 8747
SWIDTH 470 0
DWIDTH 16 0
BBX 14 32 1 -6
BITMAP
007C
00FC
008C
0180
0180
0180
0180
0180
0380
0380
0380
0380
0380
0380
0380
0380
0380
0380
0380
0380
0380
0380
0380
0300
0300
0300
0300
0300
0200
7600
FC00
7800
ENDCHAR
STARTCHAR $2248
ENCODING 8776
SWIDTH 1000 0
DWIDTH 34 0
BBX 20 10 7 6
BITMAP
3F8010
7FF070
C0FFE0
801F80
000000
000000
3F8010
FFF070
C0FFE0
801F80
ENDCHAR
STARTCHAR $2260
ENCODING 8800
SWIDTH 1000 0
DWIDTH 34 0
BBX 20 16 7 2
BITMAP
000080
0001C0
000380
000700
FFFFF0
FFFFF0
003800
007000
00E000
01C000
FFFFF0
FFFFF0
0E0000
1C0000
380000
100000
ENDCHAR
STARTCHAR $2264
ENCODING 8804
SWIDTH 1000 0
DWIDTH 34 0
BBX 20 19 7 0
BITMAP
000010
0001F0
000FE0
007E00
03F000
1F8000
F80000
C00000
F80000
1F8000
03F000
007E00
000FE0
0001F0
000010
000000
000000
FFFFF0
FFFFF0
ENDCHAR
STARTCHAR $2265
ENCODING 8805
SWIDTH 1000 0
DWIDTH 34 0
BBX 20 19 7 0
BITMAP
800000
F80000
7F0000
07E000
00FC00
001F80
0001F0
000030
0001F0
001F80
00FC00
07E000
7F0000
F80000
800000
000000
000000
FFFFF0
FFFFF0
ENDCHAR
STARTCHAR $25CA
ENCODING 9674
SWIDTH 529 0
DWIDTH 18 0
BBX 16 26 1 0
BITMAP
01C0
03C0
03E0
0660
0630
0C30
0818
1818
300C
300E
6006
6007
C003
E003
6006
3006
300C
180C
1818
0C18
0C30
0670
0660
03C0
03C0
0180
ENDCHAR
STARTCHAR FB01
ENCODING 64257
SWIDTH 647 0
DWIDTH 22 0
BBX 19 25 1 0
BITMAP
07F3E0
0FF3E0
1FF3E0
1F13E0
1F03E0
1F0000
1F0000
FFE3E0
FFE3E0
FFE3E0
1F03E0
1F03E0
1F03E0
1F03E0
1F03E0
1F03E0
1F03E0
1F03E0
1F03E0
1F03E0
1F03E0
1F03E0
1F03E0
1F03E0
1F03E0
ENDCHAR
STARTCHAR FB02
ENCODING 64258
SWIDTH 647 0
DWIDTH 22 0
BBX 19 25 1 0
BITMAP
07F3E0
0FF3E0
1FF3E0
1F03E0
1F03E0
1F03E0
1F03E0
FFE3E0
FFE3E0
FFE3E0
1F03E0
1F03E0
1F03E0
1F03E0
1F03E0
1F03E0
1F03E0
1F03E0
1F03E0
1F03E0
1F03E0
1F03E0
1F03E0
1F03E0
1F03E0
ENDCHAR
ENDFONT
